<?xml version="1.0" encoding="UTF-8"?> <svg xmlns="http://www.w3.org/2000/svg" width="127.736" height="86.963" viewBox="0 0 127.736 86.963"><g id="Group_402" data-name="Group 402" transform="translate(23738 13524)"><g id="Group_10" data-name="Group 10" transform="translate(-23737.867 -13524)"><path id="Path_24" data-name="Path 24" d="M105.075,33.627l.047-.037c-.014-.013-.027-.036-.042-.037s-.03.021-.045.033Zm.126,15.947a11.441,11.441,0,0,1-1.9.148,2.344,2.344,0,0,1-1.36-.514c-.3-.283-.335-.839-.52-1.365a1.518,1.518,0,0,1-.206.338,1.188,1.188,0,0,0,.5,2.13,3.163,3.163,0,0,0,1.4.115,3.55,3.55,0,0,0,2.084-.853M86.221,18.506a5.5,5.5,0,0,1,.606-2.8,5.683,5.683,0,0,1,2.057-2.152c-2.3-.008-4.082,1.414-2.664,4.952M29.872,28.24a1.293,1.293,0,0,0,1.292-1.21,1.525,1.525,0,0,0-1.245-1.29,1.389,1.389,0,0,0-1.256,1.277,1.208,1.208,0,0,0,1.209,1.224m18.46,8.887a2.821,2.821,0,0,0,3.287.331c.773-.476,1.67-2.031,1.242-2.884a6.344,6.344,0,0,1-4.529,2.553m58.512,2.31a35.615,35.615,0,0,1,7.658-4.817c-3.45.379-3.795.91-9.291-.881a8.4,8.4,0,0,1,1.633,5.7M33.106,29.04a2.73,2.73,0,0,0,2.645,2.773,2.6,2.6,0,0,0,2.768-2.694,2.828,2.828,0,0,0-2.757-2.838,2.7,2.7,0,0,0-2.656,2.759M96.392,18.584a3.787,3.787,0,0,0-3.6-3.829,3.874,3.874,0,0,0-4.133,3.8,3.8,3.8,0,0,0,3.73,3.869,3.873,3.873,0,0,0,4-3.839m-5,20.859a6.361,6.361,0,1,0,12.72.079c-.084-3.926-2.733-6.319-6.514-6.362A6.168,6.168,0,0,0,91.4,39.444M51.981,29.871A5.231,5.231,0,0,0,46.54,24.49a5.036,5.036,0,0,0-5.018,5.218A5.187,5.187,0,0,0,46.9,35.02a5.064,5.064,0,0,0,5.082-5.148M93.437,26.65c.743.076,1.375.178,2.009.2a9.7,9.7,0,0,1,4.539,1.278c2.085,1.179,4.16,2.379,6.238,3.569a10.508,10.508,0,0,0,5.553,1.421,22.044,22.044,0,0,0,5.275-.954,24.934,24.934,0,0,1,7.473-1.18c.992.039,1.987.006,2.979.006-.869-.992-1.74-2.064-2.691-3.057a68.689,68.689,0,0,0-7.09-6.463,12.082,12.082,0,0,0-8.909-2.642A21.743,21.743,0,0,0,99.5,22.263a30.218,30.218,0,0,0-6.064,4.387M24.8,43.8c.244-.145.568-.233.72-.444,1.059-1.469,2.185-2.9,3.1-4.464,1.591-2.725,3.787-4.314,7.023-4.267.629.009,1.259,0,1.889,0-4.085-1.252-7.746-3.064-10-7.023-.075.195-.109.237-.1.27a17.909,17.909,0,0,1,.289,6.576,26.019,26.019,0,0,1-1.232,5.5c-.512,1.3-1.133,2.558-1.706,3.835l-.106.142.077.053L24.8,43.8M6.832,4.083a20.808,20.808,0,0,1,2.254.611,25.3,25.3,0,0,1,5.17,2.539,25.766,25.766,0,0,1,4.508,3.838c1.32,1.441,2.6,2.918,3.865,4.412,1.1,1.3,2.1,2.684,3.223,3.966,1.608,1.839,3.3,3.611,5.723,4.381a7.212,7.212,0,0,0,2.05.365,28.611,28.611,0,0,0,4.192-.15,35.926,35.926,0,0,0,4.065-.943,35.618,35.618,0,0,0,6.629-2.636,2.472,2.472,0,0,0,.282-.185l.271-.237,0,0a3.813,3.813,0,0,0,.742-.3c1.052-.7,2.091-1.424,3.13-2.144,2.646-1.833,5.118-3.944,8.139-5.178a30.7,30.7,0,0,1,4.454-1.633,14.473,14.473,0,0,1,5.015-.2,21.573,21.573,0,0,1,6.071,1.528c1.6.687,3.185,1.4,4.879,2.147a6.046,6.046,0,0,0-.425-.929C79.923,11.666,78.8,9.98,77.6,8.357,76.239,6.531,74.82,4.75,73.39,2.98c-.559-.693-1.22-1.3-1.835-1.95a5.327,5.327,0,0,1,1.12.393,23.158,23.158,0,0,1,5.389,4.8c.871,1.029,1.757,2.054,2.724,2.99A9.837,9.837,0,0,0,85.6,11.748a20.4,20.4,0,0,0,4.1.545c2.116.038,4.23.178,6.344.261,1.492.059,2.986.061,4.476.15,1.636.1,3.279.191,4.9.424a51.8,51.8,0,0,1,8.859,1.917,24.974,24.974,0,0,1,6.973,3.818,31.606,31.606,0,0,1,5.11,4.741,34.175,34.175,0,0,1,4.677,6.072,18.617,18.617,0,0,1,1.311,3.119,3.337,3.337,0,0,1,.07,1.891,1.747,1.747,0,0,1-1.146,1,4.629,4.629,0,0,1-2.012-.193c-1.437-.4-2.831-.962-4.276-1.314a4.714,4.714,0,0,0-2.083.072,22.488,22.488,0,0,0-6.76,2.736c-1.951,1.192-3.914,2.369-5.828,3.618a24.4,24.4,0,0,0-2.548,2.016c-.8.689-1.552,1.429-2.31,2.163a1.8,1.8,0,0,0-.46,2.225,2.368,2.368,0,0,0,2.193.758,15.8,15.8,0,0,0,4.9-2.268c3.118-1.855,6.21-3.754,9.335-5.6,1.543-.91,3.116-1.774,4.717-2.578a5.759,5.759,0,0,1,1.877-.462,1.336,1.336,0,0,1,1.448.78,1.3,1.3,0,0,1-.434,1.583,45.945,45.945,0,0,1-4.253,3.661c-2.527,1.776-5.127,3.463-7.8,5.017a37.359,37.359,0,0,1-8.6,3.974,23.134,23.134,0,0,1-6.239,1.288,12.382,12.382,0,0,1-6.662-1.631,15.185,15.185,0,0,1-2.937-2.45,24.89,24.89,0,0,1-2.032-2.79c-.145.9-.247,2.038-.517,3.13a14.587,14.587,0,0,1-4.765,7.932,16.741,16.741,0,0,1-6.434,3.222c-1.571.432-3.127.936-4.718,1.275-1.651.351-3.331.581-5.008.79a23.153,23.153,0,0,1-3.018.137,8.606,8.606,0,0,1-1.5-.268c.743-.106,1.489-.189,2.227-.323a38.289,38.289,0,0,0,11.066-3.528A17.3,17.3,0,0,0,84.9,51.967a23.79,23.79,0,0,0,3.066-8.222c.307-1.858.691-3.7,1.011-5.559a4.954,4.954,0,0,0-.043-1.062c.22-1.163.451-2.325.653-3.491.081-.468.1-.947.144-1.421a14.234,14.234,0,0,0-.992-6.119,23.107,23.107,0,0,0-4.263-7.125,19.017,19.017,0,0,0-6.6-4.592,10.424,10.424,0,0,0-4.364-.984c-1.006-.016-2.015-.05-3.018.008a16.641,16.641,0,0,0-5.008.986,18.26,18.26,0,0,0-5.943,3.626,15.756,15.756,0,0,0-4.235,5.939c-.371.975-.793,1.936-1.094,2.933a16.273,16.273,0,0,0-.45,4.324,19.906,19.906,0,0,0,1.006,6.139c.412,1.407,1,2.762,1.4,4.172a6.148,6.148,0,0,1-3.074,7.248,15.615,15.615,0,0,1-1.874.776,3.738,3.738,0,0,1,.577-.558,8.185,8.185,0,0,0,2.806-2.8c1.294-2.208.972-4.349-1.7-5.622a40.682,40.682,0,0,0-9.861-3c-.606-.118-1.219-.2-1.828-.3-.391-.049-.785-.08-1.171-.151a12.963,12.963,0,0,0-4.065.078,8.108,8.108,0,0,0-4.239,2.3,58.076,58.076,0,0,0-5.2,5.632c-.61.678-1.325,1.263-2,1.88a21.193,21.193,0,0,1-5.133,3.3,57.042,57.042,0,0,1-9.521,3.485Q8.043,54.3,6.2,54.828a2.376,2.376,0,0,1,.487-.4c.97-.425,1.987-.758,2.921-1.249a42.266,42.266,0,0,0,5.275-2.993,18.794,18.794,0,0,0,6.33-8.715,29.873,29.873,0,0,0,1.813-11.444,37.089,37.089,0,0,0-1.164-8.808,26.019,26.019,0,0,0-2.066-5.7,24.8,24.8,0,0,0-3.734-5.113,22.936,22.936,0,0,0-7.446-5.6c-.587-.264-1.191-.489-1.787-.732" transform="translate(-5.415 -0.877)" fill="#1a1818"></path><path id="Path_25" data-name="Path 25" d="M2.316,20.506c.6.243,1.2.468,1.787.732a22.946,22.946,0,0,1,7.447,5.595,24.82,24.82,0,0,1,3.733,5.113,26.012,26.012,0,0,1,2.066,5.7,37.066,37.066,0,0,1,1.164,8.808A29.864,29.864,0,0,1,16.7,57.9a18.8,18.8,0,0,1-6.33,8.715,42.238,42.238,0,0,1-5.275,2.993c-.934.491-1.951.824-2.921,1.249a2.354,2.354,0,0,0-.487.395l-.73.09C1.7,70.177,2.38,69.079,3.1,68.008a.945.945,0,0,1,.6-.285c.772-.122,1.552-.2,2.326-.31a.72.72,0,0,0,.42-.178c.871-1.009,1.727-2.032,2.584-3.055.02-.023,0-.084-.012-.175l-3.606.326c.442-1.166.842-2.257,1.284-3.332.054-.131.327-.226.506-.241,1.263-.109,2.528-.238,3.794-.267a1.345,1.345,0,0,0,1.466-1.034c.235-.759.568-1.487.9-2.34l-5.632.188c.249-1.326.541-2.58.7-3.851.067-.551.273-.633.727-.614,1.154.049,2.309.075,3.464.109q.52.015,1.04.019c1,.007,1.022.008,1.166-.953.089-.592.088-1.2.162-1.792.061-.5-.08-.665-.622-.681-1.636-.05-3.269-.185-4.9-.272-.287-.016-.471-.02-.447-.408.068-1.1.114-2.211.119-3.316,0-.431.186-.49.536-.474,1.59.072,3.182.1,4.769.211.589.04.734-.176.688-.695q-.113-1.273-.2-2.549c-.028-.43-.225-.57-.659-.579q-2.077-.038-4.151-.16c-.909-.054-.906-.086-1.071-.931-.2-1.036-.356-2.085-.629-3.1-.134-.5.059-.51.408-.49.991.055,1.981.117,2.973.171.692.038,1.384.065,2.077.1.275.015.395-.089.293-.366-.363-.989-.689-1.995-1.121-2.953-.1-.224-.551-.365-.86-.408-1.3-.183-2.607-.316-3.912-.463a.869.869,0,0,1-.832-.648c-.419-1.162-.93-2.291-1.44-3.519l4.8.366A11.748,11.748,0,0,0,8.3,25.78a.856.856,0,0,0-.453-.124c-.938-.1-1.877-.2-2.816-.3a.906.906,0,0,1-.78-.549,17.8,17.8,0,0,0-3.029-4.1c-.074-.076-.137-.164-.325-.391l1.417.189" transform="translate(-0.899 -17.3)" fill="#e50019"></path><path id="Path_26" data-name="Path 26" d="M298.448.155c.615.648,1.276,1.258,1.835,1.95,1.429,1.77,2.849,3.551,4.2,5.377,1.206,1.623,2.327,3.309,3.469,4.978a5.983,5.983,0,0,1,.425.929c-1.694-.747-3.281-1.461-4.879-2.147a21.571,21.571,0,0,0-6.071-1.528,14.473,14.473,0,0,0-5.015.2,30.735,30.735,0,0,0-4.454,1.633c-3.021,1.234-5.494,3.345-8.139,5.178-1.04.72-2.078,1.443-3.131,2.144a3.8,3.8,0,0,1-.742.3c.373-.33.759-.645,1.115-.992,1-.981,2.05-1.926,2.978-2.974a4.736,4.736,0,0,0-.135-6.11c-1.67-2.134-3.552-4.1-5.355-6.134-.577-.65-1.2-1.261-1.894-1.993a13.393,13.393,0,0,0,2.547.462,3.9,3.9,0,0,1,3.054,1.727c1.878,2.128,3.723,4.286,5.582,6.431.195.225.4.443.591.657.512-.41.972-.826,1.481-1.17.341-.23.283-.371.05-.629-1.143-1.265-2.273-2.543-3.4-3.82a34.981,34.981,0,0,1-2.376-2.914c.415.042.831.089,1.247.125a6.261,6.261,0,0,0,1.584.1,2.267,2.267,0,0,1,2.269.959c1.161,1.372,2.319,2.745,3.457,4.135.29.354.489.551,1,.285a11.316,11.316,0,0,1,1.947-.6l-3.765-4.892c1.1-.189,2.2-.391,3.3-.55a.694.694,0,0,1,.491.271c1.184,1.444,2.348,2.9,3.53,4.349a.942.942,0,0,0,.515.363c1.385.158,2.774.278,4.17.412-1.5-2.2-3.535-4.066-5.223-6.18,1.081-.17,2.115-.344,3.153-.484a1.629,1.629,0,0,1,.576.149" transform="translate(-232.309 -0.002)" fill="#e50019"></path><path id="Path_27" data-name="Path 27" d="M338.132,179.714a9.848,9.848,0,0,1,4.891-1.9,7.719,7.719,0,0,1,5.063,1.122,4.865,4.865,0,0,0-4.626-2.764c-2.453-.054-4.181,1.383-5.327,3.538m12.186,3.475c0,.828-.016,1.657.006,2.484.012.44-.146.561-.592.6a15.735,15.735,0,0,0-7.762,2.789,13.542,13.542,0,0,0-2.027,1.864c-.518.539-.489.581-1.024,0a16.455,16.455,0,0,1-3.645-6.565,15.564,15.564,0,0,1-.5-6.142,1.123,1.123,0,0,1,.673-1,17.76,17.76,0,0,1,7.729-2.043,9.2,9.2,0,0,1,5.787,1.92,3.343,3.343,0,0,1,1.3,2.428c.112,1.216.139,2.44.2,3.661l-.153,0" transform="translate(-285.114 -149.163)" fill="#e50019"></path><path id="Path_28" data-name="Path 28" d="M465,182.805c-1.3-2.153-3.058-3.562-5.684-3.276-1.806.2-3.733,1.438-3.974,2.316a9.613,9.613,0,0,1,9.658.96m-1.122,11.666c-1.46-1.128-2.672-2.2-4.018-3.072a14.47,14.47,0,0,0-6.575-2.091c-.342-.033-.572-.073-.565-.5a33.307,33.307,0,0,1,.4-6.678,3.492,3.492,0,0,1,2.287-2.7,12.8,12.8,0,0,1,6.666-.662,21.974,21.974,0,0,1,5.952,1.9.78.78,0,0,1,.532.775,17.87,17.87,0,0,1-3.628,11.753c-.353.479-.757.921-1.052,1.277" transform="translate(-385.634 -152.082)" fill="#e50019"></path><path id="Path_29" data-name="Path 29" d="M418.186,244.114a4.957,4.957,0,0,1,.043,1.062c-.32,1.856-.7,3.7-1.011,5.559a23.781,23.781,0,0,1-3.066,8.222,17.3,17.3,0,0,1-7.051,6.695,38.3,38.3,0,0,1-11.066,3.528c-.738.133-1.485.216-2.227.323l-.936-.123c.546-.4.942-.7,1.355-.978a11.463,11.463,0,0,0,3.441-3.636,1.271,1.271,0,0,1,.813-.514c1.847-.267,3.707-.441,5.551-.725,1.246-.192,2.472-.512,3.705-.783a3.56,3.56,0,0,0,2.109-1.329,13.548,13.548,0,0,0,2.645-4.689c-4.107,2.466-8.521,3.527-13.14,4.432.12-.408.217-.675.277-.951.212-.963.434-1.924.6-2.9.064-.371.157-.53.571-.6a37,37,0,0,0,6.856-1.533,16.186,16.186,0,0,0,5.306-3.3,20.377,20.377,0,0,0,5.166-7.493,1.493,1.493,0,0,0,.055-.272" transform="translate(-334.669 -207.866)" fill="#e50019"></path><path id="Path_30" data-name="Path 30" d="M380.884,263.195a2.142,2.142,0,0,0,2.157,2.272,2.188,2.188,0,0,0,2.279-2.24,2.257,2.257,0,0,0-2.186-2.215,2.164,2.164,0,0,0-2.25,2.183m9.582-.385c-.683-2.187-4.024-4.6-7.563-4.457-3.365.138-6.1,2.106-6.77,3.985,4.836-2.817,9.586-2.836,14.333.472m-7.187,3.766a16.506,16.506,0,0,1-8.847-2.435c-.732-.47-1.386-1.063-2.071-1.607-.238-.189-.362-.405-.1-.681.491-.507.937-1.066,1.468-1.526a14.06,14.06,0,0,1,7.476-3.062,15.606,15.606,0,0,1,7.4.869,15.035,15.035,0,0,1,5.449,3.685c.225.218.163.359-.062.546a16.325,16.325,0,0,1-8.654,4.082c-.3.034-.591.107-.889.124-.391.022-.785.005-1.177.005" transform="translate(-316.996 -218.949)" fill="#e50019"></path><path id="Path_31" data-name="Path 31" d="M242,245.053c.61.1,1.223.182,1.829.3a40.693,40.693,0,0,1,9.861,3c2.669,1.273,2.991,3.414,1.7,5.622a8.185,8.185,0,0,1-2.806,2.8,3.724,3.724,0,0,0-.577.558,1.006,1.006,0,0,1-1.442-.23c-.627-.665-1.37-1.222-2.086-1.845.8-.6,1.6-1.162,2.367-1.772a3.123,3.123,0,0,0,1.26-1.59.912.912,0,0,0-.343-1.092c-.6-.422-1.233-.8-1.851-1.19-.356-.228-.581-.108-.779.24a11.19,11.19,0,0,1-2.563,2.867.578.578,0,0,1-.78.09c-.842-.446-1.717-.829-2.628-1.261a6.693,6.693,0,0,0,.717-.912,7.225,7.225,0,0,0,.912-1.96,2.657,2.657,0,0,0-.963-2.319A12.691,12.691,0,0,0,242,245.053" transform="translate(-206.196 -208.666)" fill="#e50019"></path><path id="Path_32" data-name="Path 32" d="M363.823,97.505a16.185,16.185,0,0,1,11.915-5.72A15.285,15.285,0,0,1,388.68,97.7c-8.27-2.7-16.538-3.3-24.857-.194" transform="translate(-309.934 -78.14)" fill="#e50019"></path><path id="Path_33" data-name="Path 33" d="M338.274,150.709c.36-1.158.778-2.051,2.056-2.384a66.31,66.31,0,0,1,10.09-2.195,41.383,41.383,0,0,1,8.012.06A45.728,45.728,0,0,1,369.492,149c.891.318,1.01,1.019,1.226,1.873a44.717,44.717,0,0,0-16.193-3.412,45.314,45.314,0,0,0-16.25,3.252" transform="translate(-288.178 -124.289)" fill="#e50019"></path><path id="Path_34" data-name="Path 34" d="M378.526,132.434a41.258,41.258,0,0,0-29.727-.621,2.282,2.282,0,0,1,1.863-1.952,43.789,43.789,0,0,1,10.087-1.828,36,36,0,0,1,14.778,1.751c.282.1.566.192.855.266a2.914,2.914,0,0,1,2.143,2.385" transform="translate(-297.141 -108.908)" fill="#e50019"></path><path id="Path_35" data-name="Path 35" d="M293.291,129.075l-.271.238.271-.238" transform="translate(-249.643 -109.909)" fill="#e50019"></path><path id="Path_36" data-name="Path 36" d="M597.134,127.042c.178.131.228.2.287.207a10.7,10.7,0,0,1,4.194,1.992q2.615,1.655,5.338,3.137a8.635,8.635,0,0,0,4.407.984,20.374,20.374,0,0,0,5.6-1.081,15.587,15.587,0,0,1,4.575-.962c.934-.008,1.868,0,2.944,0a6.41,6.41,0,0,0-.435-.483q-3.582-3.149-7.171-6.289a12.363,12.363,0,0,0-4.013-2.245,10.764,10.764,0,0,0-6.532.178c-2.737.727-5.139,2.239-7.628,3.533a18,18,0,0,0-1.562,1.029m-3.445,1.307a30.214,30.214,0,0,1,6.064-4.387,21.747,21.747,0,0,1,9.313-3.438,12.082,12.082,0,0,1,8.909,2.642,68.739,68.739,0,0,1,7.089,6.462c.951.994,1.822,2.065,2.692,3.058-.992,0-1.987.033-2.979-.007a24.926,24.926,0,0,0-7.473,1.181,22.048,22.048,0,0,1-5.275.953,10.5,10.5,0,0,1-5.553-1.421c-2.079-1.19-4.153-2.39-6.238-3.569a9.7,9.7,0,0,0-4.54-1.278c-.634-.019-1.265-.121-2.009-.2" transform="translate(-505.668 -102.576)" fill="#e50019"></path><path id="Path_37" data-name="Path 37" d="M131.281,196.176c.573-1.276,1.195-2.534,1.706-3.834a26.05,26.05,0,0,0,1.232-5.5,17.91,17.91,0,0,0-.289-6.576c-.007-.033.027-.075.1-.27,2.258,3.959,5.919,5.771,10,7.022-.63,0-1.26.008-1.889,0-3.235-.047-5.431,1.541-7.023,4.266-.911,1.56-2.036,2.995-3.1,4.464-.152.211-.476.3-.72.445Z" transform="translate(-111.921 -153.273)" fill="#e50019"></path><path id="Path_38" data-name="Path 38" d="M674.622,227.007a8.4,8.4,0,0,0-1.633-5.7c5.5,1.791,5.841,1.259,9.291.881a35.614,35.614,0,0,0-7.658,4.817" transform="translate(-573.193 -188.448)" fill="#e50019"></path><path id="Path_39" data-name="Path 39" d="M289.927,229.492a6.345,6.345,0,0,0,4.529-2.553c.428.853-.469,2.408-1.242,2.884a2.821,2.821,0,0,1-3.287-.331" transform="translate(-247.011 -193.242)" fill="#e50019"></path><path id="Path_40" data-name="Path 40" d="M542.192,90.323c-1.419-3.538.364-4.96,2.664-4.952a5.682,5.682,0,0,0-2.058,2.152,5.5,5.5,0,0,0-.606,2.8" transform="translate(-461.387 -72.694)" fill="#e50019"></path><path id="Path_41" data-name="Path 41" d="M647.335,318.029a3.55,3.55,0,0,1-2.084.853,3.167,3.167,0,0,1-1.4-.115,1.188,1.188,0,0,1-.5-2.13,1.552,1.552,0,0,0,.207-.339c.184.526.222,1.082.52,1.365a2.345,2.345,0,0,0,1.359.515,11.468,11.468,0,0,0,1.9-.148" transform="translate(-547.55 -269.332)" fill="#e50019"></path><path id="Path_42" data-name="Path 42" d="M130.7,288.957l-.056.175-.078-.053.107-.142Z" transform="translate(-111.31 -246.033)" fill="#e50019"></path><path id="Path_43" data-name="Path 43" d="M671.846,220.132l-.039-.042c.015-.012.03-.034.045-.033s.027.024.041.037l-.047.037" transform="translate(-572.186 -187.383)" fill="#e50019"></path><path id="Path_44" data-name="Path 44" d="M620.4,134.677c2.448.765,4,2.638,6.07,3.681a4.851,4.851,0,0,1-.892-3.2,5.313,5.313,0,0,1,1.461-3.027,36.319,36.319,0,0,0-6.639,2.542m19.972,3.093c-2.4-1.782-4.257-4.064-6.964-5.229a4.674,4.674,0,0,1-.782,6.81c2.672-.1,5.022-1.368,7.746-1.581m-23.48-2.706a17.96,17.96,0,0,1,1.562-1.028c2.489-1.294,4.891-2.806,7.628-3.533a10.765,10.765,0,0,1,6.532-.178,12.354,12.354,0,0,1,4.013,2.245q3.6,3.131,7.172,6.289c.128.112.23.254.435.483-1.076,0-2.01-.007-2.944,0a15.587,15.587,0,0,0-4.575.962,20.375,20.375,0,0,1-5.6,1.081,8.639,8.639,0,0,1-4.407-.984q-2.717-1.482-5.338-3.137a10.694,10.694,0,0,0-4.194-1.992c-.059-.008-.11-.076-.287-.208" transform="translate(-525.424 -110.598)" fill="#1a1818"></path><path id="Path_45" data-name="Path 45" d="M599.864,243.786a3.671,3.671,0,0,1-3.594-3.8,3.489,3.489,0,0,1,3.572-3.583,3.549,3.549,0,0,1,3.8,3.7,3.612,3.612,0,0,1-3.783,3.692" transform="translate(-507.866 -201.297)" fill="#1a1818"></path><path id="Path_46" data-name="Path 46" d="M436.631,289.54a.681.681,0,0,0,.731.721.715.715,0,0,0,.022-1.425.685.685,0,0,0-.753.7m.717-1.545a1.488,1.488,0,0,1,1.467,1.639,1.441,1.441,0,0,1-1.537,1.418,1.6,1.6,0,0,1-1.474-1.737,1.413,1.413,0,0,1,1.545-1.32" transform="translate(-371.225 -245.231)" fill="#e50019"></path></g><path id="Path_47" data-name="Path 47" d="M0,463.7a4.761,4.761,0,0,1,1.163-3.226,5.268,5.268,0,0,1,2.775-1.4,8.217,8.217,0,0,1,1.933-.218,5.721,5.721,0,0,1,1.671.232.817.817,0,0,0,.552-.131c.044-.015.1-.015.261.058.116.044.131.073.116.116a4.931,4.931,0,0,0-.232,2.267c0,.029-.087.058-.189.058-.233.029-.291,0-.32-.087-.058-.16-.2-.581-.291-.843A1.293,1.293,0,0,0,7,459.909a3.349,3.349,0,0,0-1.773-.494,3.155,3.155,0,0,0-2.485,1.206,4.945,4.945,0,0,0-.959,3.124c0,1.569.872,4.055,3.72,4.055a2.736,2.736,0,0,0,2.049-.93,2.961,2.961,0,0,0,.581-.9c.015-.044.058-.073.189.029s.189.16.175.276a5.853,5.853,0,0,1-.654,1.773.264.264,0,0,1-.276.145c-.436,0-1.351.233-2.223.233C1.5,468.424,0,465.911,0,463.716Z" transform="translate(-23738 -13914.728)" fill="#040605"></path><path id="Path_48" data-name="Path 48" d="M62.371,464.412c-.015-.044-.015-.073.015-.087.77-.335.785-.364.785-1.7v-5.609c0-.712-.029-.741-.523-1.191a.182.182,0,0,1,.015-.247c.305-.2,1.264-.683,1.671-.887a.153.153,0,0,1,.174,0,.255.255,0,0,1,.058.175c0,.712-.058,1.627-.058,2.95V459.7c0,.058.044.131.1.1.2-.1,1.09-.509,1.4-.611a2.019,2.019,0,0,1,.755-.16c1.177,0,1.6.887,1.6,2.194,0,.465-.044,1.613-.044,2.311.015.45.058.494.567.639.131.029.16.044.16.131v.233c0,.087-.015.1-.116.1H67.849c-.668,0-1.25.058-1.54.073-.058,0-.073-.015-.073-.2-.015-.145,0-.2.044-.233s.218-.087.363-.16c.233-.116.291-.2.32-.509a13.215,13.215,0,0,0,.073-1.642c0-1.206-.232-1.555-.494-1.787a1.253,1.253,0,0,0-.741-.232,2.74,2.74,0,0,0-1.148.29c-.116.058-.16.16-.16.407v1.438a10.129,10.129,0,0,0,.087,1.613c.058.291.1.334.683.451.073.015.073.029.087.247-.015.189-.029.218-.073.218a20.4,20.4,0,0,0-2.717.1c-.058,0-.087,0-.1-.044Z" transform="translate(-23791.102 -13911.151)" fill="#040605"></path><path id="Path_49" data-name="Path 49" d="M114.638,462.58a.672.672,0,0,1,.668.727.787.787,0,0,1-.785.813.693.693,0,0,1-.683-.726.793.793,0,0,1,.785-.814Zm-.378,8.777a6.86,6.86,0,0,0-.843.044c-.218.014-.349.044-.378.044a.109.109,0,0,1-.116-.073,2.253,2.253,0,0,1-.015-.334c0-.043.029-.058.073-.072.45-.073.625-.117.669-.494.029-.232.073-1.192.073-2.078,0-.785-.015-1.148-.044-1.453,0-.072-.087-.116-.683-.218-.058-.015-.087-.044-.029-.16.087-.218.1-.247.16-.262.523-.174,1.25-.407,1.845-.611.131-.043.145-.043.131.116-.058.945-.131,2.892-.131,3.618,0,.669,0,.93.015,1.119s.058.276.218.261c.378-.044.479-.044.523-.058s.116.087.1.131l-.043.393c0,.087-.044.087-.13.087Z" transform="translate(-23834.143 -13917.894)" fill="#040605"></path><path id="Path_50" data-name="Path 50" d="M137.022,488.855c.45-.175.6-.218.668-.639.029-.349.059-1.206.059-1.788,0-.523-.029-1.031-.059-1.322-.015-.16-.044-.2-.639-.378-.073-.058-.116-.087-.073-.305,0-.043.044-.072.189-.13.7-.32,1.352-.669,1.453-.712a.307.307,0,0,1,.2-.058.115.115,0,0,1,.131.131c.015.218.029.494.029.683,0,.1.044.145.1.116a12.176,12.176,0,0,1,1.119-.581,1.912,1.912,0,0,1,.814-.189,1.529,1.529,0,0,1,.974.305,2.1,2.1,0,0,1,.625,1.424c.029.291.029.727.029,1.206,0,.829.015,1.453.015,1.918,0,.1.015.145.058.145.116,0,.538-.044.7-.058q.087,0,.087.131a2.181,2.181,0,0,1-.073.378c-.029.073-.058.073-.116.073-1.293,0-1.933.073-2.412.073-.087,0-.145-.015-.174-.131l-.058-.233c.421-.16.538-.262.6-.683a16.6,16.6,0,0,0,.073-1.933c0-.755-.044-1.133-.305-1.424a1.063,1.063,0,0,0-.814-.305,2.211,2.211,0,0,0-1.032.29c-.1.073-.131.131-.145.393-.015.494-.015,2.281-.015,3.124,0,.232.029.247.726.393.087.015.1.044.073.131l-.1.29h-1.351c-.32,0-.581.015-.8.029a4.156,4.156,0,0,1-.523.044c-.044,0-.073-.044-.058-.116Z" transform="translate(-23854.625 -13935.726)" fill="#040605"></path><path id="Path_51" data-name="Path 51" d="M188.014,484.382a.893.893,0,0,0-.64.276,2.527,2.527,0,0,0-.45,1.773,3.2,3.2,0,0,0,.625,1.991,1.51,1.51,0,0,0,1.162.6.93.93,0,0,0,.625-.233,2.281,2.281,0,0,0,.494-1.613,3.436,3.436,0,0,0-.741-2.325,1.656,1.656,0,0,0-1.061-.465Zm.538-.567a2.773,2.773,0,0,1,2.7,2.863,2.7,2.7,0,0,1-1.163,2.31,4.156,4.156,0,0,1-1.889.6,3.038,3.038,0,0,1-2.194-1.032,3.124,3.124,0,0,1-.582-1.8,2.876,2.876,0,0,1,.567-1.7,3.478,3.478,0,0,1,.93-.785,3.6,3.6,0,0,1,1.613-.45Z" transform="translate(-23895.895 -13935.976)" fill="#040605"></path><path id="Path_52" data-name="Path 52" d="M234.095,484.382a.893.893,0,0,0-.64.276,2.527,2.527,0,0,0-.45,1.773,3.2,3.2,0,0,0,.625,1.991,1.51,1.51,0,0,0,1.162.6.931.931,0,0,0,.625-.233,2.281,2.281,0,0,0,.494-1.613,3.438,3.438,0,0,0-.741-2.325,1.656,1.656,0,0,0-1.06-.465Zm.538-.567a2.773,2.773,0,0,1,2.7,2.863,2.7,2.7,0,0,1-1.163,2.31,4.156,4.156,0,0,1-1.889.6,3.038,3.038,0,0,1-2.194-1.032,3.124,3.124,0,0,1-.582-1.8,2.879,2.879,0,0,1,.567-1.7,3.478,3.478,0,0,1,.93-.785,3.6,3.6,0,0,1,1.613-.45Z" transform="translate(-23935.133 -13935.976)" fill="#040605"></path><path id="Path_53" data-name="Path 53" d="M274.9,464.024c0-.1.044-.145.116-.16.421-.117.508-.146.567-.276a24.5,24.5,0,0,0,.145-3.793c0-1.119.015-2.426-.029-3.4-.014-.422-.058-.567-.189-.668-.174-.16-.334-.291-.392-.364a.265.265,0,0,1-.015-.291c.145-.1,1.366-.6,1.715-.77a.346.346,0,0,1,.131-.044c.029,0,.116.058.116.276,0,.145,0,.654-.029,2.093l-.029,4.388c0,.146.015.189.131.189a.93.93,0,0,0,.508-.276,11.309,11.309,0,0,0,1.279-1.352c.116-.188.043-.247-.058-.247h-.378a.082.082,0,0,1-.087-.1l.087-.276c.015-.1.044-.131.117-.131.7-.029,1.685-.043,2.47-.116.058,0,.087.015.087.073a.631.631,0,0,1-.058.291c-.029.087-.073.117-.2.131a2.618,2.618,0,0,0-1.09.479c-.349.247-.785.625-1.323,1.09-.073.043-.058.131.1.32.262.334,1.1,1.351,1.569,1.86.581.639.683.755,1.41.915.1.029.1.073.1.291,0,.145-.043.174-.1.174-.116,0-.436-.015-.7-.015-.349-.015-1.163-.029-2.049-.015-.058,0-.073-.015-.087-.058l-.058-.2c-.044-.131-.029-.16.014-.16.334-.073.45-.131.276-.335-.436-.494-.858-1.017-1.424-1.7a.409.409,0,0,0-.378-.2c-.145,0-.174.029-.189.16v1.046c0,.741.087.886.218.886s.436-.029.538-.029.1.029.1.175a.922.922,0,0,1-.044.334c-.015.073-.058.087-.131.087s-.392-.029-1.235-.029c-.64,0-1.206.029-1.468.029-.073,0-.087-.015-.087-.087Z" transform="translate(-23972.057 -13910.808)" fill="#040605"></path><path id="Path_54" data-name="Path 54" d="M346.951,460.665c-1.22.131-1.322.233-1.381.494a13.069,13.069,0,0,0-.1,2.325V466a23.544,23.544,0,0,0,.1,2.369c.029.291.117.377.32.407.116.029.509.073.727.116.073.015.116.044.116.087a1.971,1.971,0,0,1-.087.421c-.538-.015-.959-.029-1.308-.029s-.639-.015-.915-.015c-.436,0-.843.015-1.134.029s-.465.029-.494.029a.18.18,0,0,1-.174-.116,1.259,1.259,0,0,1-.058-.378c.887-.059,1.191-.116,1.293-.523a14.932,14.932,0,0,0,.116-2.412V462.9c0-1.875-.015-2.049-.508-2.122a4.036,4.036,0,0,0-.7-.058.084.084,0,0,1-.087-.087.6.6,0,0,1,.073-.247c.044-.087.073-.116.116-.131a3.045,3.045,0,0,1,.392-.015c.189,0,.611.015,1.613.015.7-.015,1.613-.029,1.758-.029.189,0,.2.015.218.058Z" transform="translate(-24029.693 -13915.891)" fill="#040605"></path><path id="Path_55" data-name="Path 55" d="M374.619,488.855c.45-.175.6-.218.668-.639.029-.349.059-1.206.059-1.788,0-.523-.029-1.031-.059-1.322-.015-.16-.044-.2-.639-.378-.073-.058-.116-.087-.073-.305,0-.043.044-.072.189-.13.7-.32,1.352-.669,1.453-.712a.307.307,0,0,1,.2-.058.115.115,0,0,1,.131.131c.015.218.029.494.029.683,0,.1.044.145.1.116a12.184,12.184,0,0,1,1.119-.581,1.912,1.912,0,0,1,.814-.189,1.529,1.529,0,0,1,.974.305,2.106,2.106,0,0,1,.625,1.424c.029.291.029.727.029,1.206,0,.829.015,1.453.015,1.918,0,.1.015.145.058.145.116,0,.538-.044.7-.058q.087,0,.087.131a2.181,2.181,0,0,1-.073.378c-.029.073-.058.073-.116.073-1.293,0-1.933.073-2.412.073-.087,0-.145-.015-.174-.131l-.058-.233c.421-.16.538-.262.6-.683a16.608,16.608,0,0,0,.073-1.933c0-.755-.044-1.133-.305-1.424a1.063,1.063,0,0,0-.814-.305,2.211,2.211,0,0,0-1.032.29c-.1.073-.131.131-.145.393-.015.494-.015,2.281-.015,3.124,0,.232.029.247.726.393.087.015.1.044.073.131l-.1.29h-1.351c-.32,0-.581.015-.8.029a4.156,4.156,0,0,1-.523.044c-.044,0-.073-.044-.058-.116Z" transform="translate(-24056.941 -13935.726)" fill="#040605"></path><path id="Path_56" data-name="Path 56" d="M425.379,459.789a1.366,1.366,0,0,0-.872.334,1.75,1.75,0,0,0-.392,1.249,2.758,2.758,0,0,0,.828,2.078,1.484,1.484,0,0,0,.974.378,2.111,2.111,0,0,0,.944-.247c.116-.058.2-.116.2-.2a20.588,20.588,0,0,0,0-2.848.423.423,0,0,0-.233-.364,2.5,2.5,0,0,0-1.438-.378Zm-2.543,2.514a3,3,0,0,1,1-2.209,3.8,3.8,0,0,1,2.209-1.017,3.086,3.086,0,0,1,.9.116.107.107,0,0,0,.145-.1c.015-.174.029-.552.029-.886.015-1.1,0-1.468-.029-1.86-.014-.174-.044-.261-.683-.363a.156.156,0,0,1-.131-.116l-.029-.131c-.014-.073,0-.087.058-.116a15.514,15.514,0,0,0,1.875-.872.206.206,0,0,1,.2-.015.238.238,0,0,1,.087.218c-.015,1.278-.087,4.141-.087,5.769v1.773a12.1,12.1,0,0,0,.073,1.4c.044.174.116.233.2.233a1.646,1.646,0,0,0,.552-.145c.1-.044.16-.015.174.043a1.263,1.263,0,0,1,.073.407c0,.073-.1.1-.2.131a14.212,14.212,0,0,1-1.831.378c-.145,0-.247-.131-.276-.291a5.271,5.271,0,0,1-.044-.7,5.3,5.3,0,0,1-2.034.828,2.2,2.2,0,0,1-1.482-.639,2.589,2.589,0,0,1-.756-1.816Z" transform="translate(-24098.049 -13911.193)" fill="#040605"></path><path id="Path_57" data-name="Path 57" d="M472.9,462.58a.672.672,0,0,1,.668.727.787.787,0,0,1-.785.813.693.693,0,0,1-.683-.726.793.793,0,0,1,.785-.814Zm-.378,8.777a6.86,6.86,0,0,0-.843.044c-.218.014-.349.044-.378.044a.109.109,0,0,1-.116-.073,2.257,2.257,0,0,1-.015-.334c0-.043.029-.058.073-.072.45-.073.625-.117.668-.494.029-.232.073-1.192.073-2.078,0-.785-.015-1.148-.044-1.453,0-.072-.087-.116-.683-.218-.058-.015-.087-.044-.029-.16.087-.218.1-.247.16-.262.523-.174,1.25-.407,1.846-.611.131-.043.145-.043.131.116-.058.945-.131,2.892-.131,3.618,0,.669,0,.93.015,1.119s.058.276.218.261c.378-.044.479-.044.523-.058s.116.087.1.131l-.044.393c0,.087-.043.087-.131.087Z" transform="translate(-24139.207 -13917.894)" fill="#040605"></path><path id="Path_58" data-name="Path 58" d="M497.617,488.716a2.533,2.533,0,0,0,.785-.247.471.471,0,0,0,.261-.32c.015-.16.029-.77.029-.973,0-.145-.014-.218-.073-.218a3.227,3.227,0,0,0-1.366.465c-.116.073-.16.174-.16.45,0,.465.1.843.509.843Zm-1.278-3.124a.989.989,0,0,1-.291.058c-.058,0-.218-.131-.218-.2a.725.725,0,0,1,.189-.422,4.72,4.72,0,0,1,1.569-1.1,2.87,2.87,0,0,1,.887-.2,1.728,1.728,0,0,1,1.25.508,1.137,1.137,0,0,1,.305.756c0,1-.044,2.005-.044,2.761-.015.712.1.973.319.973a2.385,2.385,0,0,0,.64-.16c.044-.029.16.116.16.16l-.043.291a.2.2,0,0,1-.1.16,5.484,5.484,0,0,1-1.686.378c-.276,0-.538-.145-.625-.683a5.714,5.714,0,0,1-1.758.625,1.51,1.51,0,0,1-.9-.334,1.642,1.642,0,0,1-.364-1.09c0-.334.218-.6.64-.814a8.986,8.986,0,0,1,2.441-.741c.015-.276.015-.625.015-.93a1.514,1.514,0,0,0-.218-.945,1.209,1.209,0,0,0-.741-.233.825.825,0,0,0-.378.073c-.073.058-.116.232-.116.7,0,.087-.015.131-.1.16Z" transform="translate(-24160.033 -13935.892)" fill="#040605"></path><path id="Path_59" data-name="Path 59" d="M535.306,488.855c.451-.175.6-.218.669-.639.029-.349.058-1.206.058-1.788,0-.523-.029-1.031-.058-1.322-.015-.16-.044-.2-.64-.378-.073-.058-.116-.087-.073-.305,0-.043.044-.072.189-.13.7-.32,1.352-.669,1.453-.712a.307.307,0,0,1,.2-.058.115.115,0,0,1,.131.131c.015.218.029.494.029.683,0,.1.044.145.1.116a12.216,12.216,0,0,1,1.119-.581,1.912,1.912,0,0,1,.814-.189,1.529,1.529,0,0,1,.973.305,2.1,2.1,0,0,1,.625,1.424c.029.291.029.727.029,1.206,0,.829.015,1.453.015,1.918,0,.1.015.145.058.145.116,0,.538-.044.7-.058.058,0,.087.044.087.131a2.185,2.185,0,0,1-.073.378c-.029.073-.058.073-.116.073-1.293,0-1.932.073-2.412.073-.087,0-.145-.015-.174-.131l-.058-.233c.422-.16.538-.262.6-.683a16.582,16.582,0,0,0,.073-1.933c0-.755-.043-1.133-.305-1.424a1.064,1.064,0,0,0-.814-.305,2.209,2.209,0,0,0-1.032.29c-.1.073-.131.131-.146.393-.015.494-.015,2.281-.015,3.124,0,.232.029.247.727.393.087.015.1.044.072.131l-.1.29h-1.352c-.32,0-.581.015-.8.029a4.157,4.157,0,0,1-.523.044c-.044,0-.073-.044-.058-.116Z" transform="translate(-24193.768 -13935.726)" fill="#040605"></path><path id="Path_60" data-name="Path 60" d="M603.171,459.936c.639.029.93.058,2.165.073a.344.344,0,0,1,.233.058c.073.029.116.131.145.218a6.168,6.168,0,0,0,.886,1.162c.785.785,2.587,2.6,5.333,5.144,0-.479.015-1.336.015-2.383,0-1.468.015-2.282-.058-2.892-.015-.262-.058-.61-.334-.7-.16-.043-.625-.1-.814-.131-.058-.015-.1-.029-.1-.087l-.015-.393h1.6c.538,0,1.177-.058,1.54-.073.073,0,.145.015.16.058l.087.335a3.75,3.75,0,0,0-.858.291c-.291.159-.392.625-.465,2.441-.058,1.337-.073,2.238-.073,3.822,0,1.09.044,1.918.044,2.136,0,.145-.087.233-.407.378-.073.029-.131.029-.2-.087a27.655,27.655,0,0,0-3.429-3.822c-1.395-1.366-2.441-2.442-3.371-3.371-.029.726-.058,1.54-.073,2.354a25.015,25.015,0,0,0,.145,3.647c.116.363.712.479,1.148.567l.1.363c.014.044-.073.116-.116.116-.261,0-.566-.015-.886-.029s-.61-.029-.9-.029c-.508,0-.944.029-1.162.044l-.145-.436c.886-.218.93-.349.988-.828a25.147,25.147,0,0,0,.174-3.27V463.06c0-1.671-.044-1.933-.233-2.151a1.4,1.4,0,0,0-.988-.479c-.1-.015-.131-.044-.131-.116Z" transform="translate(-24251.609 -13915.642)" fill="#040605"></path><path id="Path_61" data-name="Path 61" d="M678.842,488.716a2.535,2.535,0,0,0,.784-.247.47.47,0,0,0,.261-.32c.015-.16.029-.77.029-.973,0-.145-.015-.218-.073-.218a3.227,3.227,0,0,0-1.366.465c-.116.073-.16.174-.16.45,0,.465.1.843.509.843Zm-1.279-3.124a.989.989,0,0,1-.291.058c-.058,0-.218-.131-.218-.2a.725.725,0,0,1,.189-.422,4.72,4.72,0,0,1,1.569-1.1,2.868,2.868,0,0,1,.887-.2,1.728,1.728,0,0,1,1.25.508,1.137,1.137,0,0,1,.305.756c0,1-.044,2.005-.044,2.761-.014.712.1.973.32.973a2.386,2.386,0,0,0,.639-.16c.043-.029.16.116.16.16l-.044.291a.2.2,0,0,1-.1.16,5.486,5.486,0,0,1-1.686.378c-.276,0-.538-.145-.625-.683a5.713,5.713,0,0,1-1.758.625,1.51,1.51,0,0,1-.9-.334,1.642,1.642,0,0,1-.364-1.09c0-.334.218-.6.64-.814a8.987,8.987,0,0,1,2.441-.741c.015-.276.015-.625.015-.93a1.514,1.514,0,0,0-.218-.945,1.209,1.209,0,0,0-.741-.233.824.824,0,0,0-.378.073c-.073.058-.116.232-.116.7,0,.087-.015.131-.1.16Z" transform="translate(-24314.348 -13935.892)" fill="#040605"></path><path id="Path_62" data-name="Path 62" d="M717.383,477.357c.029,0,.072.044.072.174,0,.218-.043.93-.043,1.075.64,0,1.54-.1,1.874-.1.16,0,.175.029.175.16a1.96,1.96,0,0,1-.087.509c-.015.116-.087.16-.232.16-.32.015-.974.015-1.657.058-.058,0-.1.073-.1.232-.044.828-.044,2.02-.044,2.717a.907.907,0,0,0,.959.959,1.48,1.48,0,0,0,.814-.276c.1-.073.131-.073.174,0a1.037,1.037,0,0,1,.058.276.153.153,0,0,1-.087.145,3.506,3.506,0,0,1-1.875.669,1.453,1.453,0,0,1-1.119-.508,1.278,1.278,0,0,1-.232-.973c.044-.988.044-2.718.073-3.081a.175.175,0,0,0-.16-.174c-.174-.015-.407-.015-.524-.029-.043-.015-.116-.174-.073-.2.436-.378,1.308-1.162,1.788-1.642.1-.116.174-.145.232-.145Z" transform="translate(-24347.117 -13930.477)" fill="#040605"></path><path id="Path_63" data-name="Path 63" d="M748.27,462.58a.672.672,0,0,1,.669.727.787.787,0,0,1-.785.813.693.693,0,0,1-.683-.726.793.793,0,0,1,.785-.814Zm-.378,8.777a6.856,6.856,0,0,0-.843.044c-.218.014-.349.044-.378.044a.109.109,0,0,1-.116-.073,2.248,2.248,0,0,1-.015-.334c0-.043.029-.058.073-.072.451-.073.625-.117.669-.494.029-.232.072-1.192.072-2.078,0-.785-.014-1.148-.043-1.453,0-.072-.087-.116-.683-.218-.058-.015-.087-.044-.029-.16.087-.218.1-.247.16-.262.523-.174,1.25-.407,1.846-.611.131-.043.146-.043.131.116-.058.945-.131,2.892-.131,3.618,0,.669,0,.93.014,1.119s.058.276.218.261c.377-.044.479-.044.523-.058s.116.087.1.131l-.043.393c0,.087-.044.087-.131.087Z" transform="translate(-24373.691 -13917.894)" fill="#040605"></path><path id="Path_64" data-name="Path 64" d="M773.88,484.382a.891.891,0,0,0-.639.276,2.527,2.527,0,0,0-.45,1.773,3.2,3.2,0,0,0,.625,1.991,1.511,1.511,0,0,0,1.163.6.93.93,0,0,0,.625-.233,2.282,2.282,0,0,0,.494-1.613,3.436,3.436,0,0,0-.741-2.325,1.654,1.654,0,0,0-1.061-.465Zm.538-.567a2.772,2.772,0,0,1,2.7,2.863,2.7,2.7,0,0,1-1.162,2.31,4.157,4.157,0,0,1-1.889.6,3.04,3.04,0,0,1-2.195-1.032,3.127,3.127,0,0,1-.581-1.8,2.877,2.877,0,0,1,.567-1.7,3.485,3.485,0,0,1,.93-.785,3.6,3.6,0,0,1,1.613-.45Z" transform="translate(-24394.768 -13935.976)" fill="#040605"></path><path id="Path_65" data-name="Path 65" d="M816.252,488.855c.451-.175.6-.218.669-.639.029-.349.058-1.206.058-1.788,0-.523-.029-1.031-.058-1.322-.014-.16-.043-.2-.639-.378-.073-.058-.117-.087-.073-.305,0-.043.044-.072.189-.13.7-.32,1.351-.669,1.453-.712a.307.307,0,0,1,.2-.058.115.115,0,0,1,.131.131c.015.218.029.494.029.683,0,.1.044.145.1.116a12.214,12.214,0,0,1,1.119-.581,1.912,1.912,0,0,1,.814-.189,1.528,1.528,0,0,1,.973.305,2.105,2.105,0,0,1,.625,1.424c.029.291.029.727.029,1.206,0,.829.015,1.453.015,1.918,0,.1.014.145.058.145.116,0,.538-.044.7-.058.058,0,.087.044.087.131a2.178,2.178,0,0,1-.073.378c-.029.073-.058.073-.116.073-1.293,0-1.933.073-2.412.073a.148.148,0,0,1-.175-.131l-.058-.233c.422-.16.538-.262.6-.683a16.576,16.576,0,0,0,.073-1.933c0-.755-.044-1.133-.305-1.424a1.063,1.063,0,0,0-.814-.305,2.21,2.21,0,0,0-1.032.29c-.1.073-.131.131-.145.393-.015.494-.015,2.281-.015,3.124,0,.232.029.247.726.393.087.015.1.044.073.131l-.1.29H817.6c-.32,0-.581.015-.8.029a4.154,4.154,0,0,1-.523.044c-.044,0-.073-.044-.059-.116Z" transform="translate(-24432.996 -13935.726)" fill="#040605"></path><path id="Path_66" data-name="Path 66" d="M1.7,554.372a1.78,1.78,0,0,1,.434-1.206,1.967,1.967,0,0,1,1.037-.522,3.062,3.062,0,0,1,.722-.082,2.149,2.149,0,0,1,.625.087.3.3,0,0,0,.207-.048c.016-.006.038-.006.1.021.044.016.049.027.044.044a1.841,1.841,0,0,0-.087.847c0,.011-.033.022-.071.022-.087.011-.109,0-.12-.032-.022-.06-.076-.218-.109-.315a.484.484,0,0,0-.163-.234,1.253,1.253,0,0,0-.663-.185,1.179,1.179,0,0,0-.928.451,1.848,1.848,0,0,0-.359,1.167A1.407,1.407,0,0,0,3.762,555.9a1.022,1.022,0,0,0,.766-.348,1.113,1.113,0,0,0,.217-.337c.005-.016.022-.027.071.011s.071.06.065.1a2.189,2.189,0,0,1-.245.662.1.1,0,0,1-.1.055c-.163,0-.505.087-.831.087a1.78,1.78,0,0,1-2-1.76Z" transform="translate(-23739.449 -13994.515)" fill="#a31524"></path><path id="Path_67" data-name="Path 67" d="M26.328,563.724a.941.941,0,0,0,.293-.093.174.174,0,0,0,.1-.119c.005-.06.011-.288.011-.364,0-.054-.005-.081-.027-.081a1.2,1.2,0,0,0-.51.174c-.043.027-.06.065-.06.168,0,.174.038.315.19.315Zm-.478-1.168a.378.378,0,0,1-.109.022c-.021,0-.081-.049-.081-.076a.271.271,0,0,1,.071-.157,1.763,1.763,0,0,1,.587-.413,1.069,1.069,0,0,1,.331-.076.646.646,0,0,1,.467.19.425.425,0,0,1,.114.283c0,.375-.016.75-.016,1.032-.005.266.038.364.119.364a.9.9,0,0,0,.239-.06c.016-.011.06.044.06.06l-.017.108a.072.072,0,0,1-.038.06,2.036,2.036,0,0,1-.63.141c-.1,0-.2-.055-.233-.255a2.146,2.146,0,0,1-.657.233.565.565,0,0,1-.336-.125.614.614,0,0,1-.136-.407c0-.125.082-.223.239-.3a3.373,3.373,0,0,1,.913-.277c.005-.1.005-.233.005-.348a.566.566,0,0,0-.081-.353.451.451,0,0,0-.277-.087.31.31,0,0,0-.141.027c-.027.022-.043.087-.043.261,0,.033-.006.049-.038.06Z" transform="translate(-23759.785 -14002.428)" fill="#a31524"></path><path id="Path_68" data-name="Path 68" d="M40.734,559.478c.011,0,.027.016.027.065,0,.082-.016.348-.016.4.239,0,.576-.038.7-.038.06,0,.065.011.065.06a.727.727,0,0,1-.033.19c-.005.043-.033.06-.087.06-.119.005-.364.005-.619.022-.022,0-.038.027-.038.087-.016.31-.016.755-.016,1.016a.339.339,0,0,0,.358.358.556.556,0,0,0,.3-.1c.038-.027.049-.027.065,0a.4.4,0,0,1,.022.1.057.057,0,0,1-.033.054,1.311,1.311,0,0,1-.7.25.544.544,0,0,1-.418-.19.477.477,0,0,1-.087-.364c.016-.369.016-1.015.027-1.151a.065.065,0,0,0-.06-.065c-.065-.006-.152-.006-.2-.011-.016-.005-.043-.065-.027-.076.163-.142.489-.434.668-.614.038-.044.065-.054.087-.054Z" transform="translate(-23772.033 -14000.403)" fill="#a31524"></path><path id="Path_69" data-name="Path 69" d="M51,554.638c-.005-.016-.005-.027.005-.032.288-.125.293-.136.293-.635v-2.1c0-.266-.011-.277-.2-.445a.067.067,0,0,1,.006-.092c.114-.076.472-.255.625-.331a.057.057,0,0,1,.065,0,.1.1,0,0,1,.022.065c0,.266-.022.608-.022,1.1v.706c0,.022.016.049.038.038.076-.038.407-.19.521-.228a.75.75,0,0,1,.283-.06c.44,0,.6.331.6.821,0,.174-.016.6-.016.863.005.169.022.185.212.239.049.011.06.016.06.049v.087c0,.032-.005.038-.044.038h-.4c-.25,0-.467.022-.576.027-.022,0-.027-.005-.027-.076-.005-.054,0-.076.016-.087s.081-.032.136-.059c.087-.044.109-.076.119-.19a4.917,4.917,0,0,0,.027-.614c0-.45-.087-.581-.185-.668a.466.466,0,0,0-.277-.087,1.026,1.026,0,0,0-.429.109c-.044.022-.06.06-.06.152v.538a3.756,3.756,0,0,0,.033.6c.021.109.038.125.255.169.027.005.027.011.033.092s-.011.082-.027.082a7.625,7.625,0,0,0-1.016.038c-.022,0-.033,0-.038-.016Z" transform="translate(-23781.422 -13993.179)" fill="#a31524"></path><path id="Path_70" data-name="Path 70" d="M69.276,554.868c0-.021.005-.06.032-.07a.847.847,0,0,1,.114-.043c.1-.038.114-.06.119-.13.044-.723.054-1.667.054-2.031,0-.331-.005-.587-.011-.723-.011-.157-.044-.168-.288-.2-.021-.005-.021-.016.006-.114.005-.022.016-.033.054-.044.174-.065.456-.152.723-.266.038-.016.049.005.043.038-.043.668-.06,1.624-.06,2.618,0,.706.011.825.152.825.054,0,.157-.011.179-.011.038,0,.038.011.038.044l-.022.136c-.005.027-.027.027-.043.027-.228,0-.837.016-1.076.038-.016,0-.022,0-.022-.016Z" transform="translate(-23796.986 -13993.394)" fill="#a31524"></path><path id="Path_71" data-name="Path 71" d="M79.417,563.724a.941.941,0,0,0,.293-.093.174.174,0,0,0,.1-.119c.006-.06.011-.288.011-.364,0-.054-.005-.081-.027-.081a1.2,1.2,0,0,0-.511.174c-.043.027-.06.065-.06.168,0,.174.038.315.19.315Zm-.478-1.168a.378.378,0,0,1-.109.022c-.021,0-.081-.049-.081-.076a.269.269,0,0,1,.071-.157,1.763,1.763,0,0,1,.587-.413,1.069,1.069,0,0,1,.331-.076.646.646,0,0,1,.467.19.424.424,0,0,1,.114.283c0,.375-.016.75-.016,1.032-.005.266.038.364.119.364a.9.9,0,0,0,.239-.06c.016-.011.06.044.06.06l-.017.108a.072.072,0,0,1-.038.06,2.036,2.036,0,0,1-.63.141c-.1,0-.2-.055-.233-.255a2.146,2.146,0,0,1-.657.233.565.565,0,0,1-.336-.125.614.614,0,0,1-.136-.407c0-.125.082-.223.239-.3a3.373,3.373,0,0,1,.913-.277c.005-.1.005-.233.005-.348a.563.563,0,0,0-.081-.353.451.451,0,0,0-.277-.087.31.31,0,0,0-.141.027c-.027.022-.043.087-.043.261,0,.033-.006.049-.038.06Z" transform="translate(-23804.99 -14002.428)" fill="#a31524"></path><path id="Path_72" data-name="Path 72" d="M95.993,563.869c-.461,0-.809,0-1.054.022-.016,0-.016,0-.016-.016a.759.759,0,0,1,.005-.109.057.057,0,0,1,.027-.038c.179-.065.2-.087.207-.152a8.5,8.5,0,0,0,.033-.9c0-.244-.022-.331-.076-.4a.414.414,0,0,0-.3-.119.747.747,0,0,0-.408.147.155.155,0,0,0-.071.119c-.016.1-.016.418-.016.624,0,.592.016.614.217.652.033.005.044.016.044.043s-.011.125-.022.125c-.043,0-.348.005-.467.005a2.994,2.994,0,0,0-.467.033c-.022-.005-.022-.114-.022-.163.044-.016.12-.049.158-.065a.118.118,0,0,0,.06-.092,5.94,5.94,0,0,0,.021-.7c0-.315-.005-.445-.011-.5s-.022-.071-.13-.093a.16.16,0,0,1-.1-.054c-.005-.017-.027-.082-.016-.093.331-.2.494-.32.565-.358a.233.233,0,0,1,.131-.032c.027,0,.043.011.043.049l-.005.386c.168-.1.391-.255.554-.331a.391.391,0,0,1,.185-.049.663.663,0,0,1,.581.369c.288-.152.418-.228.538-.277a.9.9,0,0,1,.331-.076.532.532,0,0,1,.315.119c.087.082.2.19.2.679.005.261.005.511.005.728a.683.683,0,0,0,.027.277c.038.049.125.076.283.109.021.005.033.011.033.038s-.022.13-.038.13H97c-.266,0-.446.016-.57.027-.016,0-.038,0-.044-.011a.705.705,0,0,1-.022-.1.033.033,0,0,1,.022-.038c.082-.038.12-.071.13-.152a5.208,5.208,0,0,0,.033-.684c0-.418-.049-.565-.13-.646a.332.332,0,0,0-.283-.12.876.876,0,0,0-.408.13.1.1,0,0,0-.054.1c0,.31-.006.923.021,1.162.011.081.027.081.266.12a.043.043,0,0,1,.033.048Z" transform="translate(-23817.684 -14002.334)" fill="#a31524"></path><path id="Path_73" data-name="Path 73" d="M122.01,562.64c0-.2-.169-.429-.348-.429a.214.214,0,0,0-.12.044.848.848,0,0,0-.206.624c.25-.06.445-.1.614-.141.038-.005.06-.033.06-.092Zm-.185-.641a.747.747,0,0,1,.467.179.879.879,0,0,1,.228.391c.076-.016.136-.027.152-.011a.044.044,0,0,1,.016.054c-.016.049-.06.147-.119.169-.272.076-1,.217-1.206.271-.022.006-.038.027-.038.093a.584.584,0,0,0,.565.635,1.027,1.027,0,0,0,.652-.245c.038-.033.1-.027.1-.005-.011.147-.022.185-.06.212a2.106,2.106,0,0,1-.663.364.733.733,0,0,1-.212.027.934.934,0,0,1-.706-.3.992.992,0,0,1-.228-.647,1.225,1.225,0,0,1,.576-1.021,1.008,1.008,0,0,1,.467-.163Z" transform="translate(-23840.844 -14002.55)" fill="#a31524"></path><path id="Path_74" data-name="Path 74" d="M135.556,559.478c.011,0,.027.016.027.065,0,.082-.016.348-.016.4.239,0,.576-.038.7-.038.06,0,.065.011.065.06a.727.727,0,0,1-.033.19c-.005.043-.033.06-.087.06-.119.005-.364.005-.619.022-.022,0-.038.027-.038.087-.016.31-.016.755-.016,1.016a.339.339,0,0,0,.358.358.556.556,0,0,0,.3-.1c.038-.027.049-.027.065,0a.4.4,0,0,1,.022.1.057.057,0,0,1-.033.054,1.311,1.311,0,0,1-.7.25.544.544,0,0,1-.418-.19.477.477,0,0,1-.087-.364c.016-.369.016-1.015.027-1.151a.065.065,0,0,0-.06-.065c-.065-.006-.152-.006-.2-.011-.016-.005-.043-.065-.027-.076.163-.142.489-.434.668-.614.038-.044.065-.054.087-.054Z" transform="translate(-23852.775 -14000.403)" fill="#a31524"></path><path id="Path_75" data-name="Path 75" d="M155.819,562.879a.084.084,0,0,1,.081.065c.027.114.044.158.055.207.032.12.054.141.26.228.087.027.125.065.125.2,0,.049-.016.06-.065.076-.277.071-.283.081-.391.456-.016.049-.049.076-.13.076-.13,0-.179-.114-.272-.336a.446.446,0,0,0-.277-.223.167.167,0,0,1-.12-.141.211.211,0,0,1,.147-.163c.239-.044.255-.065.358-.294a.231.231,0,0,1,.223-.152Z" transform="translate(-23870.059 -14003.299)" fill="#a31524"></path><path id="Path_76" data-name="Path 76" d="M174.69,554.372a1.78,1.78,0,0,1,.434-1.206,1.967,1.967,0,0,1,1.037-.522,3.062,3.062,0,0,1,.722-.082,2.149,2.149,0,0,1,.625.087c.06.022.136-.016.207-.048.016-.006.038-.006.1.021.044.016.049.027.044.044a1.837,1.837,0,0,0-.087.847c0,.011-.033.022-.071.022-.087.011-.109,0-.12-.032-.022-.06-.076-.218-.109-.315a.484.484,0,0,0-.163-.234,1.253,1.253,0,0,0-.663-.185,1.179,1.179,0,0,0-.928.451,1.846,1.846,0,0,0-.359,1.167,1.406,1.406,0,0,0,1.391,1.516,1.022,1.022,0,0,0,.766-.348,1.111,1.111,0,0,0,.217-.337c.005-.016.021-.027.071.011s.071.06.065.1a2.178,2.178,0,0,1-.244.662.1.1,0,0,1-.1.055c-.163,0-.505.087-.831.087a1.78,1.78,0,0,1-2-1.76Z" transform="translate(-23886.75 -13994.515)" fill="#a31524"></path><path id="Path_77" data-name="Path 77" d="M198.4,554.868c0-.021.005-.06.033-.07a.837.837,0,0,1,.114-.043c.1-.038.114-.06.119-.13.044-.723.054-1.667.054-2.031,0-.331-.005-.587-.011-.723-.011-.157-.044-.168-.288-.2-.021-.005-.021-.016.006-.114.005-.022.016-.033.054-.044.174-.065.456-.152.723-.266.038-.016.049.005.043.038-.043.668-.06,1.624-.06,2.618,0,.706.011.825.152.825.054,0,.157-.011.179-.011.038,0,.038.011.038.044l-.022.136c-.005.027-.027.027-.043.027-.228,0-.836.016-1.076.038-.016,0-.022,0-.022-.016Z" transform="translate(-23906.932 -13993.394)" fill="#a31524"></path><path id="Path_78" data-name="Path 78" d="M208.533,563.724a.94.94,0,0,0,.293-.093.175.175,0,0,0,.1-.119c.005-.06.011-.288.011-.364,0-.054-.006-.081-.027-.081a1.2,1.2,0,0,0-.511.174c-.043.027-.06.065-.06.168,0,.174.038.315.19.315Zm-.478-1.168a.374.374,0,0,1-.109.022c-.022,0-.081-.049-.081-.076a.269.269,0,0,1,.071-.157,1.763,1.763,0,0,1,.587-.413,1.069,1.069,0,0,1,.331-.076.646.646,0,0,1,.467.19.425.425,0,0,1,.114.283c0,.375-.016.75-.016,1.032-.006.266.038.364.119.364a.9.9,0,0,0,.239-.06c.016-.011.06.044.06.06l-.017.108a.072.072,0,0,1-.038.06,2.036,2.036,0,0,1-.63.141c-.1,0-.2-.055-.234-.255a2.146,2.146,0,0,1-.657.233.565.565,0,0,1-.337-.125.614.614,0,0,1-.136-.407c0-.125.081-.223.239-.3a3.375,3.375,0,0,1,.913-.277c.005-.1.005-.233.005-.348a.565.565,0,0,0-.081-.353.452.452,0,0,0-.277-.087.31.31,0,0,0-.141.027c-.027.022-.044.087-.044.261,0,.033-.005.049-.038.06Z" transform="translate(-23914.936 -14002.428)" fill="#a31524"></path><path id="Path_79" data-name="Path 79" d="M222.942,559.478c.011,0,.027.016.027.065,0,.082-.016.348-.016.4.239,0,.576-.038.7-.038.06,0,.065.011.065.06a.728.728,0,0,1-.033.19c-.005.043-.033.06-.087.06-.119.005-.364.005-.619.022-.022,0-.038.027-.038.087-.016.31-.016.755-.016,1.016a.339.339,0,0,0,.358.358.556.556,0,0,0,.3-.1c.038-.027.049-.027.065,0a.4.4,0,0,1,.022.1.057.057,0,0,1-.033.054,1.311,1.311,0,0,1-.7.25.544.544,0,0,1-.418-.19.477.477,0,0,1-.087-.364c.016-.369.016-1.015.027-1.151a.065.065,0,0,0-.06-.065c-.065-.006-.152-.006-.2-.011-.016-.005-.043-.065-.027-.076.163-.142.489-.434.668-.614.038-.044.065-.054.087-.054Z" transform="translate(-23927.186 -14000.403)" fill="#a31524"></path><path id="Path_80" data-name="Path 80" d="M235.649,563.517a.493.493,0,0,1-.26.44,1.212,1.212,0,0,1-.592.147,2.055,2.055,0,0,1-.434-.054c-.1-.022-.125-.027-.19.016-.005.005-.033,0-.049-.011s-.027-.033-.022-.06a2.122,2.122,0,0,0-.005-.586c0-.022,0-.043.016-.055a.425.425,0,0,1,.131-.043,2.01,2.01,0,0,0,.255.418.488.488,0,0,0,.369.2.313.313,0,0,0,.3-.293c0-.239-.315-.364-.472-.451-.13-.076-.51-.25-.516-.6a.549.549,0,0,1,.234-.445.853.853,0,0,1,.489-.174c.163,0,.283.016.369.016a.249.249,0,0,0,.1-.011.035.035,0,0,1,.038.006c.016.011.016.022.016.044a1.945,1.945,0,0,0,.1.527.07.07,0,0,1-.06.065.166.166,0,0,1-.163-.081c-.082-.119-.217-.391-.462-.391a.249.249,0,0,0-.228.272c0,.2.217.309.4.407.168.087.63.272.63.695Z" transform="translate(-23937.336 -14002.519)" fill="#a31524"></path><path id="Path_81" data-name="Path 81" d="M247.827,562.1a.332.332,0,0,0-.239.1.944.944,0,0,0-.169.663,1.2,1.2,0,0,0,.234.744.566.566,0,0,0,.435.223.347.347,0,0,0,.233-.087.852.852,0,0,0,.185-.6,1.283,1.283,0,0,0-.277-.869.618.618,0,0,0-.4-.174Zm.2-.212a1.036,1.036,0,0,1,1.01,1.07,1.012,1.012,0,0,1-.435.864,1.553,1.553,0,0,1-.706.222,1.136,1.136,0,0,1-.82-.386,1.167,1.167,0,0,1-.217-.673,1.076,1.076,0,0,1,.212-.635,1.3,1.3,0,0,1,.348-.294,1.346,1.346,0,0,1,.6-.168Z" transform="translate(-23948.205 -14002.459)" fill="#a31524"></path><path id="Path_82" data-name="Path 82" d="M264.707,562.551a.869.869,0,0,0-.245-.625.64.64,0,0,0-.489-.228.715.715,0,0,0-.358.125c-.016.011-.027.054-.027.13v.326a6.056,6.056,0,0,0,.038.7.16.16,0,0,0,.076.119,1.042,1.042,0,0,0,.489.136.516.516,0,0,0,.315-.109.69.69,0,0,0,.2-.565Zm-1.972,2.195c.272-.076.321-.114.348-.321.011-.081.044-.619.044-1.325v-.532a5.193,5.193,0,0,0-.033-.652c-.011-.049-.038-.07-.2-.087a.125.125,0,0,1-.049-.13,6.218,6.218,0,0,1,.609-.4.2.2,0,0,1,.113-.027.03.03,0,0,1,.022.033v.342a3.125,3.125,0,0,1,.706-.255.918.918,0,0,1,.576.239.967.967,0,0,1,.3.744,1.123,1.123,0,0,1-.342.749,2.573,2.573,0,0,1-.668.348.506.506,0,0,1-.185.039,1.207,1.207,0,0,1-.326-.044c-.033,0-.049.027-.055.065s-.011.375-.011.478c0,.576.016.619.136.635.065.006.131.006.266.006.038,0,.049.011.038.038l-.027.092c-.011.049-.017.06-.065.065-.25,0-.945.049-1.141.049-.01,0-.016-.006-.022-.016Z" transform="translate(-23961.723 -14001.929)" fill="#a31524"></path><path id="Path_83" data-name="Path 83" d="M290.827,562.879a.084.084,0,0,1,.081.065c.027.114.044.158.055.207.032.12.054.141.26.228.087.027.125.065.125.2,0,.049-.016.06-.065.076-.277.071-.283.081-.391.456-.016.049-.049.076-.13.076-.13,0-.179-.114-.272-.336a.445.445,0,0,0-.277-.223.167.167,0,0,1-.12-.141.211.211,0,0,1,.147-.163c.239-.044.255-.065.358-.294a.231.231,0,0,1,.223-.152Z" transform="translate(-23985.02 -14003.299)" fill="#a31524"></path><path id="Path_84" data-name="Path 84" d="M312,555.462a.528.528,0,0,1,.141.043.053.053,0,0,1,.021.065,6.183,6.183,0,0,0-.163.684.093.093,0,0,1-.092.087c-.054.006-.114.006-.331.006-.1,0-.222-.006-.429-.011s-.5-.005-.961-.005a6.36,6.36,0,0,0-.668.038c-.044.006-.076.006-.087-.005a.588.588,0,0,1-.038-.163c.245-.043.4-.092.429-.244a4.191,4.191,0,0,0,.033-.771v-1.059c0-.446-.016-.728-.033-.875-.016-.1-.065-.131-.429-.125-.016,0-.038-.033-.021-.076l.038-.1c.011-.022.022-.022.033-.022.456.005.994-.016,1.418-.038a.339.339,0,0,1,.038.174c-.255.033-.434.06-.462.261a7.753,7.753,0,0,0-.033.918l.006.652a8.812,8.812,0,0,0,.021,1.048c.005.092.027.13.1.146a3.178,3.178,0,0,0,.44.022c.358,0,.69-.027.847-.282a.9.9,0,0,0,.136-.337c.011-.027.016-.033.038-.033Z" transform="translate(-24001.43 -13994.796)" fill="#a31524"></path><path id="Path_85" data-name="Path 85" d="M331.29,562.1a.332.332,0,0,0-.239.1.944.944,0,0,0-.169.663,1.2,1.2,0,0,0,.234.744.566.566,0,0,0,.435.223.347.347,0,0,0,.234-.087.853.853,0,0,0,.185-.6,1.283,1.283,0,0,0-.277-.869.617.617,0,0,0-.4-.174Zm.2-.212a1.036,1.036,0,0,1,1.01,1.07,1.013,1.013,0,0,1-.434.864,1.554,1.554,0,0,1-.706.222,1.137,1.137,0,0,1-.82-.386,1.167,1.167,0,0,1-.217-.673,1.076,1.076,0,0,1,.212-.635,1.3,1.3,0,0,1,.348-.294,1.346,1.346,0,0,1,.6-.168Z" transform="translate(-24019.275 -14002.459)" fill="#a31524"></path><path id="Path_86" data-name="Path 86" d="M347.247,562.348c-.228.044-.244.07-.217.19.032.141.207.624.375,1.086.011.022.032.017.038,0a7.12,7.12,0,0,0,.381-.765.3.3,0,0,0-.011-.179c-.071-.25-.087-.272-.293-.315a.285.285,0,0,1,.038-.119c.006-.027.027-.033.06-.033.288,0,.586,0,.858-.011,0,.114,0,.147-.027.157-.185.038-.207.076-.179.19.082.31.212.712.347,1.1.006.016.038.011.044,0,.108-.223.293-.641.375-.869a1.281,1.281,0,0,0,.071-.3c0-.054-.1-.092-.261-.13a.4.4,0,0,1,.044-.136c.31-.011.407-.011.521-.016.081-.006.152-.011.2-.011.027,0,.038,0,.038.033v.054a.083.083,0,0,1-.043.087c-.13.065-.147.1-.261.31s-.424.874-.549,1.141c-.109.228-.163.369-.19.429-.017.044-.065.065-.163.065-.065,0-.081-.005-.1-.054-.136-.408-.283-.8-.4-1.114-.005-.011-.027-.027-.038-.005-.261.505-.4.788-.532,1.124a.068.068,0,0,1-.06.049h-.07a.142.142,0,0,1-.125-.119c-.169-.5-.348-.989-.554-1.494-.092-.239-.136-.288-.3-.326-.022-.005-.027-.011-.016-.037l.033-.082c.011-.022.016-.033.038-.033.321,0,.548-.016.853-.016.038,0,.043.011.049.038Z" transform="translate(-24032.824 -14002.708)" fill="#a31524"></path><path id="Path_87" data-name="Path 87" d="M371.032,562.64c0-.2-.169-.429-.348-.429a.214.214,0,0,0-.12.044.848.848,0,0,0-.206.624c.25-.06.445-.1.614-.141.038-.005.06-.033.06-.092Zm-.185-.641a.747.747,0,0,1,.467.179.878.878,0,0,1,.228.391c.076-.016.136-.027.152-.011a.044.044,0,0,1,.016.054c-.016.049-.06.147-.119.169-.272.076-1,.217-1.206.271-.022.006-.038.027-.038.093a.584.584,0,0,0,.565.635,1.027,1.027,0,0,0,.652-.245c.038-.033.1-.027.1-.005-.011.147-.022.185-.06.212a2.106,2.106,0,0,1-.662.364.736.736,0,0,1-.212.027.934.934,0,0,1-.706-.3.992.992,0,0,1-.228-.647,1.225,1.225,0,0,1,.576-1.021,1.007,1.007,0,0,1,.467-.163Z" transform="translate(-24052.889 -14002.55)" fill="#a31524"></path><path id="Path_88" data-name="Path 88" d="M384.13,563.65c.125-.044.147-.054.158-.125a6.609,6.609,0,0,0,.016-.663v-.435c0-.152-.011-.168-.2-.223-.054-.011-.081-.1-.076-.13.206-.125.51-.293.662-.38a.133.133,0,0,1,.06-.022.1.1,0,0,1,.065.087,3.1,3.1,0,0,0-.027.424,3.527,3.527,0,0,0,.483-.364.259.259,0,0,1,.163-.065.332.332,0,0,1,.31.272c0,.114-.158.271-.2.3a.176.176,0,0,1-.109.049.123.123,0,0,1-.087-.044.354.354,0,0,0-.206-.114.478.478,0,0,0-.293.13c-.044.038-.055.093-.055.294v.641a.88.88,0,0,0,.027.266c.011.032.027.054.081.048l.294-.016a.042.042,0,0,1,.043.049l-.043.174h-.712c-.2,0-.347.01-.374.01s-.033-.016-.022-.043Z" transform="translate(-24065.004 -14002.272)" fill="#a31524"></path><path id="Path_89" data-name="Path 89" d="M404.949,554.372a1.78,1.78,0,0,1,.434-1.206,1.967,1.967,0,0,1,1.038-.522,3.062,3.062,0,0,1,.722-.082,2.148,2.148,0,0,1,.625.087.3.3,0,0,0,.207-.048c.016-.006.038-.006.1.021.044.016.049.027.044.044a1.837,1.837,0,0,0-.087.847c0,.011-.033.022-.07.022-.087.011-.109,0-.12-.032-.022-.06-.076-.218-.109-.315a.483.483,0,0,0-.163-.234,1.253,1.253,0,0,0-.663-.185,1.179,1.179,0,0,0-.928.451,1.846,1.846,0,0,0-.359,1.167,1.407,1.407,0,0,0,1.391,1.516,1.022,1.022,0,0,0,.766-.348,1.114,1.114,0,0,0,.217-.337c.005-.016.021-.027.071.011s.071.06.065.1a2.183,2.183,0,0,1-.244.662.1.1,0,0,1-.1.055c-.163,0-.505.087-.831.087a1.78,1.78,0,0,1-2-1.76Z" transform="translate(-24082.82 -13994.515)" fill="#a31524"></path><path id="Path_90" data-name="Path 90" d="M428.264,554.638c-.005-.016-.005-.027.005-.032.288-.125.293-.136.293-.635v-2.1c0-.266-.011-.277-.2-.445a.068.068,0,0,1,.005-.092c.114-.076.473-.255.625-.331a.057.057,0,0,1,.065,0,.1.1,0,0,1,.022.065c0,.266-.022.608-.022,1.1v.706c0,.022.016.049.038.038.076-.038.407-.19.521-.228a.751.751,0,0,1,.283-.06c.44,0,.6.331.6.821,0,.174-.016.6-.016.863.005.169.022.185.212.239.048.011.06.016.06.049v.087c0,.032-.005.038-.043.038h-.4c-.249,0-.467.022-.576.027-.022,0-.027-.005-.027-.076-.005-.054,0-.076.016-.087s.082-.032.136-.059c.087-.044.108-.076.119-.19a4.913,4.913,0,0,0,.027-.614c0-.45-.087-.581-.185-.668a.466.466,0,0,0-.277-.087,1.026,1.026,0,0,0-.429.109c-.044.022-.06.06-.06.152v.538a3.757,3.757,0,0,0,.033.6c.022.109.038.125.255.169.028.005.028.011.033.092s-.011.082-.027.082a7.626,7.626,0,0,0-1.016.038c-.022,0-.033,0-.038-.016Z" transform="translate(-24102.67 -13993.179)" fill="#a31524"></path><path id="Path_91" data-name="Path 91" d="M447.8,553.955a.251.251,0,0,1,.25.272.294.294,0,0,1-.293.3.258.258,0,0,1-.255-.271.3.3,0,0,1,.293-.3Zm-.141,3.28a2.591,2.591,0,0,0-.315.016c-.082.006-.131.017-.142.017a.04.04,0,0,1-.043-.027.875.875,0,0,1-.005-.124c0-.017.011-.022.027-.027.168-.027.234-.043.25-.185.011-.087.027-.445.027-.777,0-.293-.005-.429-.016-.543,0-.027-.033-.044-.255-.082-.022-.005-.032-.016-.011-.06.033-.082.038-.092.06-.1.2-.065.467-.152.69-.228.049-.016.054-.016.049.043-.022.353-.049,1.081-.049,1.353,0,.249,0,.347.006.418s.021.1.081.1c.141-.016.179-.016.2-.022s.043.032.038.049l-.016.146c0,.032-.016.032-.049.032Z" transform="translate(-24118.762 -13995.7)" fill="#a31524"></path><path id="Path_92" data-name="Path 92" d="M456.17,563.775c.168-.065.223-.081.25-.239.011-.13.022-.451.022-.668,0-.2-.011-.385-.022-.494-.006-.06-.016-.076-.239-.141-.027-.021-.044-.033-.027-.114,0-.017.017-.027.071-.049.261-.119.505-.25.543-.266a.116.116,0,0,1,.076-.022.043.043,0,0,1,.049.049c.006.082.011.185.011.255,0,.038.016.054.038.044a4.442,4.442,0,0,1,.418-.217.709.709,0,0,1,.3-.071.57.57,0,0,1,.364.114.787.787,0,0,1,.234.532c.011.109.011.272.011.451,0,.31.005.543.005.717,0,.038.005.055.022.055.044,0,.2-.016.261-.022.022,0,.033.016.033.049a.847.847,0,0,1-.027.141c-.011.027-.022.027-.044.027-.483,0-.722.027-.9.027-.033,0-.054-.005-.065-.049l-.022-.087c.158-.06.2-.1.223-.255a6.092,6.092,0,0,0,.027-.722c0-.282-.016-.423-.114-.532a.4.4,0,0,0-.3-.114.822.822,0,0,0-.386.109c-.038.027-.049.049-.054.146-.006.185-.006.853-.006,1.168,0,.087.011.092.272.147.033.006.038.016.027.049l-.038.108h-.505c-.12,0-.217.005-.3.011a1.525,1.525,0,0,1-.2.016c-.016,0-.027-.016-.021-.043Z" transform="translate(-24126.416 -14002.365)" fill="#a31524"></path><path id="Path_93" data-name="Path 93" d="M475.233,562.1a.332.332,0,0,0-.239.1.944.944,0,0,0-.169.663,1.2,1.2,0,0,0,.234.744.565.565,0,0,0,.435.223.348.348,0,0,0,.234-.087.856.856,0,0,0,.185-.6,1.283,1.283,0,0,0-.277-.869.618.618,0,0,0-.4-.174Zm.2-.212a1.036,1.036,0,0,1,1.01,1.07,1.013,1.013,0,0,1-.434.864,1.554,1.554,0,0,1-.706.222,1.137,1.137,0,0,1-.82-.386,1.167,1.167,0,0,1-.217-.673,1.076,1.076,0,0,1,.212-.635,1.3,1.3,0,0,1,.348-.294,1.346,1.346,0,0,1,.6-.168Z" transform="translate(-24141.844 -14002.459)" fill="#a31524"></path><path id="Path_94" data-name="Path 94" d="M492.456,562.1a.332.332,0,0,0-.239.1.942.942,0,0,0-.169.663,1.2,1.2,0,0,0,.234.744.566.566,0,0,0,.434.223.347.347,0,0,0,.234-.087.853.853,0,0,0,.185-.6,1.283,1.283,0,0,0-.277-.869.617.617,0,0,0-.4-.174Zm.2-.212a1.036,1.036,0,0,1,1.01,1.07,1.012,1.012,0,0,1-.435.864,1.554,1.554,0,0,1-.706.222,1.136,1.136,0,0,1-.82-.386,1.165,1.165,0,0,1-.218-.673,1.076,1.076,0,0,1,.212-.635,1.311,1.311,0,0,1,.348-.294,1.348,1.348,0,0,1,.6-.168Z" transform="translate(-24156.51 -14002.459)" fill="#a31524"></path><path id="Path_95" data-name="Path 95" d="M507.71,554.494c0-.038.016-.054.043-.06.157-.044.19-.054.212-.1a9.142,9.142,0,0,0,.055-1.418c0-.418.005-.907-.011-1.271-.005-.157-.021-.212-.071-.25-.065-.06-.125-.108-.147-.136a.1.1,0,0,1-.005-.109c.055-.038.511-.223.641-.288a.133.133,0,0,1,.049-.017c.011,0,.044.022.044.1,0,.054,0,.244-.011.782l-.011,1.641c0,.054.006.071.049.071a.347.347,0,0,0,.19-.1,4.208,4.208,0,0,0,.478-.505c.043-.07.016-.092-.022-.092h-.141a.031.031,0,0,1-.033-.038l.033-.1c.006-.038.017-.049.044-.049.26-.011.63-.016.923-.044.022,0,.033.005.033.027a.234.234,0,0,1-.022.108c-.011.033-.027.044-.077.049a.97.97,0,0,0-.406.18c-.13.092-.294.233-.5.407-.027.017-.022.049.038.12.1.125.413.505.587.7.217.239.256.282.527.342.038.011.038.027.038.109,0,.054-.016.065-.038.065-.043,0-.163-.006-.261-.006-.13-.005-.434-.011-.766-.005-.022,0-.027-.005-.033-.022l-.022-.076c-.016-.049-.011-.06.006-.06.125-.027.168-.049.1-.125-.163-.184-.32-.38-.532-.635a.153.153,0,0,0-.141-.076c-.054,0-.065.011-.07.06v.391c0,.277.033.331.081.331s.163-.011.2-.011.038.011.038.065a.353.353,0,0,1-.016.125c-.006.027-.022.033-.049.033s-.146-.011-.462-.011c-.239,0-.45.011-.549.011-.027,0-.032-.005-.032-.033Z" transform="translate(-24170.313 -13993.051)" fill="#a31524"></path><path id="Path_96" data-name="Path 96" d="M534.95,562.879a.084.084,0,0,1,.081.065c.027.114.044.158.055.207.032.12.054.141.26.228.087.027.125.065.125.2,0,.049-.017.06-.065.076-.277.071-.282.081-.391.456-.016.049-.049.076-.13.076-.13,0-.179-.114-.272-.336a.445.445,0,0,0-.277-.223.167.167,0,0,1-.119-.141.211.211,0,0,1,.147-.163c.239-.044.255-.065.358-.294a.231.231,0,0,1,.222-.152Z" transform="translate(-24192.893 -14003.299)" fill="#a31524"></path><path id="Path_97" data-name="Path 97" d="M553.494,553.025c.038,0,.06.1.06.141,0,.027-.011.033-.038.038-.212.022-.271.038-.255.114a1.571,1.571,0,0,0,.076.228c.26.706.592,1.467.853,2.047.005.022.038.038.054.017.136-.245.478-.951.652-1.331a.143.143,0,0,0,.011-.1c-.217-.581-.266-.722-.32-.826-.054-.119-.1-.141-.326-.152-.016,0-.038-.011-.033-.033.016-.119.049-.152.093-.152.065,0,.136,0,.228.005s.207.006.353.006c.109,0,.217-.006.3-.011s.169-.005.2-.005c.043.016.07.157.049.174-.282.033-.3.06-.25.217.2.581.559,1.494.869,2.194.006.022.033.011.049-.011a14.816,14.816,0,0,0,.837-2.26c.005-.07-.033-.1-.1-.109-.1-.016-.19-.022-.25-.033-.022-.005-.022-.011-.022-.044.005-.076.016-.135.06-.135.028,0,.12.005.228.005s.234.011.31.011c.2,0,.337-.011.4-.011.049-.005.1.005.1.054l.016.092c0,.022-.005.033-.027.033-.3.011-.3.065-.538.576-.152.326-.581,1.352-.9,2.129-.049.125-.157.325-.25.548-.017.044-.076.054-.114.054-.071,0-.092-.027-.12-.1-.033-.092-.076-.228-.168-.473-.1-.261-.369-.994-.554-1.418-.136.283-.4.788-.674,1.4-.076.163-.152.348-.234.537-.021.044-.038.06-.054.065a.349.349,0,0,1-.12.011c-.027,0-.048-.017-.054-.054-.038-.082-.125-.342-.282-.733s-.44-1.108-.853-2.07c-.163-.385-.19-.423-.462-.461-.033-.005-.043-.011-.043-.038a.6.6,0,0,1,.043-.1.13.13,0,0,1,.1-.033c.092,0,.336.006.462.006Z" transform="translate(-24208.254 -13994.891)" fill="#a31524"></path><path id="Path_98" data-name="Path 98" d="M586.51,563.724a.945.945,0,0,0,.294-.093.175.175,0,0,0,.1-.119c.005-.06.011-.288.011-.364,0-.054-.006-.081-.027-.081a1.2,1.2,0,0,0-.511.174c-.043.027-.06.065-.06.168,0,.174.038.315.19.315Zm-.478-1.168a.372.372,0,0,1-.108.022c-.022,0-.082-.049-.082-.076a.27.27,0,0,1,.07-.157,1.768,1.768,0,0,1,.587-.413,1.069,1.069,0,0,1,.331-.076.646.646,0,0,1,.467.19.425.425,0,0,1,.114.283c0,.375-.016.75-.016,1.032-.005.266.038.364.12.364a.893.893,0,0,0,.239-.06c.016-.011.06.044.06.06l-.016.108a.073.073,0,0,1-.038.06,2.036,2.036,0,0,1-.63.141c-.1,0-.2-.055-.234-.255a2.142,2.142,0,0,1-.657.233.565.565,0,0,1-.337-.125.614.614,0,0,1-.136-.407c0-.125.081-.223.239-.3a3.376,3.376,0,0,1,.913-.277c.005-.1.005-.233.005-.348a.563.563,0,0,0-.081-.353.451.451,0,0,0-.277-.087.31.31,0,0,0-.141.027c-.027.022-.044.087-.044.261,0,.033-.005.049-.038.06Z" transform="translate(-24236.787 -14002.428)" fill="#a31524"></path><path id="Path_99" data-name="Path 99" d="M600.3,554.638c-.005-.016-.005-.027.006-.032.288-.125.293-.136.293-.635v-2.1c0-.266-.011-.277-.2-.445a.067.067,0,0,1,.005-.092c.114-.076.472-.255.624-.331a.057.057,0,0,1,.065,0,.1.1,0,0,1,.021.065c0,.266-.021.608-.021,1.1v.706c0,.022.016.049.038.038.076-.038.407-.19.522-.228a.748.748,0,0,1,.282-.06c.44,0,.6.331.6.821,0,.174-.016.6-.016.863.005.169.021.185.212.239.049.011.06.016.06.049v.087c0,.032-.005.038-.044.038h-.4c-.25,0-.467.022-.576.027-.022,0-.027-.005-.027-.076-.005-.054,0-.076.016-.087s.081-.032.136-.059c.087-.044.109-.076.12-.19a4.991,4.991,0,0,0,.027-.614c0-.45-.087-.581-.184-.668a.468.468,0,0,0-.277-.087,1.027,1.027,0,0,0-.429.109c-.043.022-.06.06-.06.152v.538a3.772,3.772,0,0,0,.032.6c.021.109.038.125.255.169.027.005.027.011.033.092s-.011.082-.027.082a7.63,7.63,0,0,0-1.016.038c-.021,0-.033,0-.038-.016Z" transform="translate(-24249.164 -13993.179)" fill="#a31524"></path><path id="Path_100" data-name="Path 100" d="M618.7,554.494c0-.038.016-.054.043-.06.158-.044.19-.054.212-.1a9.093,9.093,0,0,0,.055-1.418c0-.418.005-.907-.011-1.271-.005-.157-.021-.212-.071-.25-.065-.06-.125-.108-.147-.136a.1.1,0,0,1-.005-.109c.054-.038.51-.223.641-.288a.127.127,0,0,1,.049-.017c.011,0,.043.022.043.1,0,.054,0,.244-.011.782l-.011,1.641c0,.054.005.071.049.071a.347.347,0,0,0,.19-.1,4.2,4.2,0,0,0,.478-.505c.043-.07.016-.092-.022-.092h-.141A.031.031,0,0,1,620,552.7l.033-.1c.005-.038.016-.049.044-.049.26-.011.63-.016.923-.044.021,0,.033.005.033.027a.233.233,0,0,1-.022.108c-.011.033-.027.044-.076.049a.973.973,0,0,0-.407.18c-.13.092-.293.233-.494.407-.027.017-.022.049.038.12.1.125.413.505.587.7.217.239.255.282.526.342.038.011.038.027.038.109,0,.054-.016.065-.038.065-.043,0-.163-.006-.26-.006-.13-.005-.434-.011-.766-.005-.022,0-.027-.005-.033-.022l-.022-.076c-.016-.049-.011-.06.006-.06.125-.027.168-.049.1-.125-.163-.184-.32-.38-.532-.635a.153.153,0,0,0-.141-.076c-.054,0-.065.011-.071.06v.391c0,.277.033.331.081.331s.163-.011.2-.011.038.011.038.065a.348.348,0,0,1-.016.125c-.006.027-.022.033-.049.033s-.146-.011-.462-.011c-.239,0-.451.011-.549.011-.027,0-.033-.005-.033-.033Z" transform="translate(-24264.818 -13993.051)" fill="#a31524"></path><path id="Path_101" data-name="Path 101" d="M637.108,553.955a.251.251,0,0,1,.25.272.294.294,0,0,1-.293.3.259.259,0,0,1-.255-.271.3.3,0,0,1,.293-.3Zm-.141,3.28a2.594,2.594,0,0,0-.315.016c-.082.006-.13.017-.141.017a.041.041,0,0,1-.044-.027.875.875,0,0,1-.005-.124c0-.017.011-.022.027-.027.168-.027.234-.043.25-.185.011-.087.027-.445.027-.777,0-.293-.005-.429-.016-.543,0-.027-.033-.044-.255-.082-.022-.005-.033-.016-.011-.06.033-.082.038-.092.06-.1.2-.065.467-.152.69-.228.049-.016.055-.016.049.043-.022.353-.049,1.081-.049,1.353,0,.249,0,.347.005.418s.022.1.082.1c.141-.016.179-.016.2-.022s.044.032.038.049l-.016.146c0,.032-.016.032-.049.032Z" transform="translate(-24279.955 -13995.7)" fill="#a31524"></path><path id="Path_102" data-name="Path 102" d="M646.349,563.724a.939.939,0,0,0,.293-.093.174.174,0,0,0,.1-.119c.006-.06.011-.288.011-.364,0-.054-.005-.081-.027-.081a1.2,1.2,0,0,0-.511.174c-.043.027-.06.065-.06.168,0,.174.038.315.19.315Zm-.478-1.168a.374.374,0,0,1-.108.022c-.022,0-.082-.049-.082-.076a.269.269,0,0,1,.071-.157,1.763,1.763,0,0,1,.587-.413,1.069,1.069,0,0,1,.331-.076.644.644,0,0,1,.467.19.424.424,0,0,1,.114.283c0,.375-.016.75-.016,1.032-.005.266.038.364.119.364a.894.894,0,0,0,.239-.06c.016-.011.06.044.06.06l-.016.108a.074.074,0,0,1-.039.06,2.036,2.036,0,0,1-.63.141c-.1,0-.2-.055-.234-.255a2.146,2.146,0,0,1-.657.233.566.566,0,0,1-.337-.125.616.616,0,0,1-.136-.407c0-.125.082-.223.239-.3a3.372,3.372,0,0,1,.913-.277c.005-.1.005-.233.005-.348a.563.563,0,0,0-.081-.353.452.452,0,0,0-.277-.087.309.309,0,0,0-.141.027c-.027.022-.044.087-.044.261,0,.033-.005.049-.038.06Z" transform="translate(-24287.74 -14002.428)" fill="#a31524"></path><path id="Path_103" data-name="Path 103" d="M660.068,554.494c0-.038.017-.054.044-.06.157-.044.19-.054.212-.1a9.059,9.059,0,0,0,.055-1.418c0-.418.005-.907-.011-1.271-.005-.157-.022-.212-.071-.25-.065-.06-.125-.108-.147-.136a.1.1,0,0,1-.005-.109c.054-.038.51-.223.641-.288a.13.13,0,0,1,.049-.017c.011,0,.043.022.043.1,0,.054,0,.244-.011.782l-.011,1.641c0,.054.005.071.049.071a.346.346,0,0,0,.19-.1,4.2,4.2,0,0,0,.478-.505c.044-.07.016-.092-.022-.092h-.141a.031.031,0,0,1-.033-.038l.033-.1c.005-.038.016-.049.043-.049.261-.011.63-.016.924-.044.021,0,.032.005.032.027a.233.233,0,0,1-.022.108c-.011.033-.027.044-.076.049a.975.975,0,0,0-.407.18c-.13.092-.293.233-.494.407-.027.017-.022.049.038.12.1.125.413.505.587.7.217.239.255.282.527.342.038.011.038.027.038.109,0,.054-.016.065-.038.065-.043,0-.163-.006-.26-.006-.13-.005-.435-.011-.766-.005-.022,0-.027-.005-.032-.022l-.022-.076c-.017-.049-.011-.06.005-.06.125-.027.168-.049.1-.125-.163-.184-.32-.38-.532-.635a.154.154,0,0,0-.141-.076c-.054,0-.065.011-.071.06v.391c0,.277.033.331.081.331s.163-.011.2-.011.038.011.038.065a.347.347,0,0,1-.016.125c-.005.027-.021.033-.049.033s-.146-.011-.461-.011c-.239,0-.451.011-.548.011-.028,0-.033-.005-.033-.033Z" transform="translate(-24300.047 -13993.051)" fill="#a31524"></path><path id="Path_104" data-name="Path 104" d="M678.05,561.964c.032,0,.043.021.054.087a2.827,2.827,0,0,1-.005.364c-.011.255-.028.684-.028,1.01a.363.363,0,0,0,.391.363.7.7,0,0,0,.4-.141.182.182,0,0,0,.065-.119,5.812,5.812,0,0,0,.033-.62,1.623,1.623,0,0,0-.038-.549c-.027-.049-.087-.065-.25-.1-.033-.011-.049-.022-.054-.038a.3.3,0,0,1-.016-.1c0-.011,0-.022.016-.022a6.274,6.274,0,0,1,.728-.07c.07,0,.092.021.1.065a1.187,1.187,0,0,1,.011.234c-.005.147-.022.337-.022.663v.478a2.184,2.184,0,0,0,.022.32c.005.027.022.038.044.033s.152-.038.255-.06c.017-.005.054.032.049.06-.032.174-.049.184-.082.19a4.609,4.609,0,0,0-.679.125c-.038.005-.065.011-.092-.027a.114.114,0,0,1-.038-.082l.011-.212c-.109.054-.283.152-.424.222a.693.693,0,0,1-.32.087.559.559,0,0,1-.511-.255.69.69,0,0,1-.071-.337c0-.44.017-.793.011-1.048-.006-.082-.006-.114-.19-.2a.129.129,0,0,1-.065-.1c-.005-.043,0-.06.049-.07.1-.022.592-.147.646-.147Z" transform="translate(-24314.771 -14002.52)" fill="#a31524"></path><path id="Path_105" data-name="Path 105" d="M697.856,563.869c-.462,0-.809,0-1.054.022-.016,0-.016,0-.016-.016a.7.7,0,0,1,.006-.109.056.056,0,0,1,.027-.038c.18-.065.2-.087.207-.152a8.559,8.559,0,0,0,.033-.9c0-.244-.022-.331-.076-.4a.414.414,0,0,0-.3-.119.745.745,0,0,0-.407.147.156.156,0,0,0-.071.119c-.016.1-.016.418-.016.624,0,.592.016.614.217.652.033.005.043.016.043.043s-.011.125-.022.125c-.043,0-.347.005-.467.005a3,3,0,0,0-.467.033c-.021-.005-.021-.114-.021-.163.043-.016.119-.049.157-.065a.118.118,0,0,0,.06-.092,5.931,5.931,0,0,0,.021-.7c0-.315-.005-.445-.011-.5s-.022-.071-.13-.093c-.066-.016-.087-.032-.1-.054s-.027-.082-.016-.093c.331-.2.494-.32.565-.358a.235.235,0,0,1,.13-.032c.027,0,.044.011.044.049l-.005.386c.168-.1.391-.255.554-.331a.392.392,0,0,1,.185-.049.662.662,0,0,1,.581.369c.288-.152.418-.228.538-.277a.9.9,0,0,1,.331-.076.532.532,0,0,1,.315.119c.087.082.2.19.2.679.005.261.005.511.005.728a.7.7,0,0,0,.027.277c.039.049.125.076.283.109.022.005.033.011.033.038s-.022.13-.038.13h-.331c-.266,0-.445.016-.57.027-.016,0-.038,0-.043-.011a.688.688,0,0,1-.022-.1.033.033,0,0,1,.022-.038c.081-.038.12-.071.13-.152a5.263,5.263,0,0,0,.032-.684c0-.418-.049-.565-.13-.646a.332.332,0,0,0-.283-.12.875.875,0,0,0-.408.13.1.1,0,0,0-.054.1c0,.31-.005.923.022,1.162.011.081.027.081.266.12a.043.043,0,0,1,.033.048Z" transform="translate(-24330.178 -14002.334)" fill="#a31524"></path><path id="Path_106" data-name="Path 106" d="M731.965,562.879a.084.084,0,0,1,.081.065c.028.114.044.158.055.207.033.12.054.141.261.228.086.027.125.065.125.2,0,.049-.016.06-.066.076-.277.071-.282.081-.391.456-.016.049-.049.076-.131.076-.13,0-.179-.114-.271-.336a.445.445,0,0,0-.277-.223.167.167,0,0,1-.119-.141.211.211,0,0,1,.147-.163c.239-.044.256-.065.358-.294a.231.231,0,0,1,.222-.152Z" transform="translate(-24360.652 -14003.299)" fill="#a31524"></path><path id="Path_107" data-name="Path 107" d="M750.509,553.025c.038,0,.06.1.06.141,0,.027-.011.033-.039.038-.212.022-.271.038-.255.114a1.6,1.6,0,0,0,.076.228c.261.706.592,1.467.853,2.047.005.022.038.038.054.017.136-.245.478-.951.652-1.331a.142.142,0,0,0,.011-.1c-.217-.581-.266-.722-.32-.826-.054-.119-.1-.141-.326-.152-.016,0-.038-.011-.032-.033.016-.119.049-.152.092-.152.065,0,.136,0,.228.005s.206.006.353.006c.109,0,.217-.006.3-.011s.169-.005.2-.005c.043.016.071.157.049.174-.282.033-.3.06-.25.217.2.581.56,1.494.869,2.194.005.022.033.011.049-.011a14.763,14.763,0,0,0,.836-2.26c.006-.07-.033-.1-.1-.109-.1-.016-.19-.022-.25-.033-.022-.005-.022-.011-.022-.044.005-.076.016-.135.059-.135.027,0,.12.005.229.005s.233.011.309.011c.2,0,.337-.011.4-.011.049-.005.1.005.1.054l.017.092c0,.022-.006.033-.027.033-.3.011-.3.065-.538.576-.152.326-.581,1.352-.9,2.129-.049.125-.158.325-.25.548-.016.044-.076.054-.114.054-.07,0-.092-.027-.119-.1-.033-.092-.076-.228-.168-.473-.1-.261-.369-.994-.554-1.418-.136.283-.4.788-.674,1.4-.076.163-.152.348-.234.537-.021.044-.038.06-.054.065a.348.348,0,0,1-.119.011c-.027,0-.049-.017-.054-.054-.038-.082-.125-.342-.282-.733s-.44-1.108-.853-2.07c-.163-.385-.19-.423-.462-.461-.033-.005-.044-.011-.044-.038a.614.614,0,0,1,.044-.1.13.13,0,0,1,.1-.033c.092,0,.337.006.462.006Z" transform="translate(-24376.016 -13994.891)" fill="#a31524"></path><path id="Path_108" data-name="Path 108" d="M784.959,553.955a.251.251,0,0,1,.25.272.294.294,0,0,1-.293.3.259.259,0,0,1-.255-.271.3.3,0,0,1,.293-.3Zm-.141,3.28a2.589,2.589,0,0,0-.315.016c-.082.006-.131.017-.141.017a.04.04,0,0,1-.043-.027.784.784,0,0,1-.006-.124c0-.017.011-.022.027-.027.168-.027.233-.043.25-.185.011-.087.027-.445.027-.777,0-.293-.006-.429-.017-.543,0-.027-.032-.044-.255-.082-.022-.005-.033-.016-.011-.06.033-.082.038-.092.06-.1.2-.065.467-.152.69-.228.049-.016.055-.016.049.043-.022.353-.049,1.081-.049,1.353,0,.249,0,.347.006.418s.022.1.082.1c.141-.016.179-.016.2-.022s.043.032.038.049l-.016.146c0,.032-.017.032-.049.032Z" transform="translate(-24405.852 -13995.7)" fill="#a31524"></path><path id="Path_109" data-name="Path 109" d="M793.018,554.868c0-.021.006-.06.033-.07a.83.83,0,0,1,.114-.043c.1-.038.114-.06.119-.13.043-.723.054-1.667.054-2.031,0-.331-.006-.587-.011-.723-.011-.157-.043-.168-.288-.2-.022-.005-.022-.016.005-.114.006-.022.016-.033.054-.044.174-.065.456-.152.722-.266.038-.016.049.005.044.038-.044.668-.06,1.624-.06,2.618,0,.706.011.825.152.825.054,0,.157-.011.179-.011.039,0,.039.011.039.044l-.022.136c-.005.027-.027.027-.044.027-.228,0-.836.016-1.075.038-.017,0-.022,0-.022-.016Z" transform="translate(-24413.262 -13993.394)" fill="#a31524"></path><path id="Path_110" data-name="Path 110" d="M801.945,554.868c0-.021.005-.06.033-.07a.806.806,0,0,1,.114-.043c.1-.038.114-.06.119-.13.043-.723.054-1.667.054-2.031,0-.331-.006-.587-.011-.723-.011-.157-.043-.168-.288-.2-.022-.005-.022-.016.005-.114.005-.022.016-.033.054-.044.174-.065.456-.152.722-.266.038-.016.049.005.044.038-.044.668-.06,1.624-.06,2.618,0,.706.011.825.152.825.054,0,.157-.011.179-.011.038,0,.038.011.038.044l-.022.136c-.005.027-.027.027-.044.027-.228,0-.836.016-1.075.038-.017,0-.022,0-.022-.016Z" transform="translate(-24420.863 -13993.394)" fill="#a31524"></path><path id="Path_111" data-name="Path 111" d="M812.081,563.724a.94.94,0,0,0,.293-.093.174.174,0,0,0,.1-.119c.005-.06.011-.288.011-.364,0-.054-.006-.081-.027-.081a1.2,1.2,0,0,0-.511.174c-.043.027-.059.065-.059.168,0,.174.038.315.19.315Zm-.478-1.168a.374.374,0,0,1-.108.022c-.022,0-.082-.049-.082-.076a.27.27,0,0,1,.071-.157,1.762,1.762,0,0,1,.587-.413,1.069,1.069,0,0,1,.331-.076.644.644,0,0,1,.467.19.425.425,0,0,1,.115.283c0,.375-.016.75-.016,1.032-.006.266.038.364.119.364a.893.893,0,0,0,.239-.06c.016-.011.06.044.06.06l-.016.108a.074.074,0,0,1-.038.06,2.036,2.036,0,0,1-.63.141c-.1,0-.2-.055-.234-.255a2.143,2.143,0,0,1-.657.233.567.567,0,0,1-.337-.125.616.616,0,0,1-.136-.407c0-.125.082-.223.239-.3a3.372,3.372,0,0,1,.913-.277c.005-.1.005-.233.005-.348a.563.563,0,0,0-.081-.353.452.452,0,0,0-.277-.087.309.309,0,0,0-.141.027c-.027.022-.044.087-.044.261,0,.033-.006.049-.038.06Z" transform="translate(-24428.865 -14002.428)" fill="#a31524"></path><path id="Path_112" data-name="Path 112" d="M827.176,562.551a.87.87,0,0,0-.245-.625.641.641,0,0,0-.489-.228.713.713,0,0,0-.358.125c-.016.011-.027.054-.027.13v.326a6.064,6.064,0,0,0,.038.7.159.159,0,0,0,.076.119,1.041,1.041,0,0,0,.489.136.517.517,0,0,0,.315-.109.691.691,0,0,0,.2-.565Zm-1.972,2.195c.272-.076.321-.114.348-.321.011-.081.044-.619.044-1.325v-.532a5.273,5.273,0,0,0-.033-.652c-.011-.049-.038-.07-.2-.087a.124.124,0,0,1-.049-.13,6.233,6.233,0,0,1,.608-.4.2.2,0,0,1,.114-.027.03.03,0,0,1,.022.033v.342a3.109,3.109,0,0,1,.706-.255.918.918,0,0,1,.576.239.966.966,0,0,1,.3.744,1.123,1.123,0,0,1-.342.749,2.565,2.565,0,0,1-.668.348.5.5,0,0,1-.185.039,1.21,1.21,0,0,1-.326-.044c-.032,0-.049.027-.054.065s-.011.375-.011.478c0,.576.016.619.135.635.065.006.13.006.266.006.038,0,.049.011.038.038l-.027.092c-.011.049-.017.06-.066.065-.25,0-.945.049-1.14.049-.011,0-.016-.006-.021-.016Z" transform="translate(-24440.674 -14001.929)" fill="#a31524"></path><path id="Path_113" data-name="Path 113" d="M844.678,563.724a.94.94,0,0,0,.293-.093.174.174,0,0,0,.1-.119c.006-.06.011-.288.011-.364,0-.054-.005-.081-.027-.081a1.2,1.2,0,0,0-.511.174c-.043.027-.06.065-.06.168,0,.174.038.315.19.315Zm-.478-1.168a.374.374,0,0,1-.108.022c-.022,0-.082-.049-.082-.076a.271.271,0,0,1,.071-.157,1.765,1.765,0,0,1,.587-.413,1.071,1.071,0,0,1,.331-.076.644.644,0,0,1,.467.19.424.424,0,0,1,.115.283c0,.375-.016.75-.016,1.032-.006.266.038.364.119.364a.893.893,0,0,0,.239-.06c.016-.011.06.044.06.06l-.016.108a.073.073,0,0,1-.038.06,2.037,2.037,0,0,1-.63.141c-.1,0-.2-.055-.234-.255a2.142,2.142,0,0,1-.657.233.567.567,0,0,1-.337-.125.616.616,0,0,1-.136-.407c0-.125.082-.223.239-.3a3.371,3.371,0,0,1,.913-.277c.005-.1.005-.233.005-.348a.563.563,0,0,0-.081-.353.452.452,0,0,0-.277-.087.309.309,0,0,0-.141.027c-.027.022-.044.087-.044.261,0,.033-.005.049-.038.06Z" transform="translate(-24456.621 -14002.428)" fill="#a31524"></path></g></svg> 